<svg id="screenshot" viewBox="2278.0026862915283 63.00213764192253 484.46667839897873 500.4097908628428" width="484.46667839897873" height="500.4097908628428" version="1.1" xmlns="http://www.w3.org/2000/svg" xmlns:xlink="http://www.w3.org/1999/xlink" style="-webkit-print-color-adjust: exact;"><g id="shape-9f79fd40-d76a-11ec-81b2-4b340c751e99"><defs><linearGradient id="fill-color-gradient_b47870a0-d76a-11ec-95c3-9f00e036712f" x1="0.08" y1="0.06" x2="0.59" y2="0.96" gradientTransform="matrix(1,0,0,1,0,0)"><stop offset="0" stop-color="#00adb5" stop-opacity="1"/><stop offset="1" stop-color="#009ba1" stop-opacity="1"/></linearGradient></defs><path fill="currentColor" width="105.83334" height="109.31615" d="M2638.7973165925996,145.36450595097563C2688.6963166082382,174.91036642754884,2745.1613889173677,207.7392401626781,2758.951385851216,252.38653590828193C2772.738819307825,297.69010929330346,2743.8486139119104,355.46900488697577,2709.707537376065,407.3383301308334C2676.2215666043285,459.2079071447776,2638.139693127631,505.16844481490745,2585.615143101077,534.0578857452863C2532.430589237832,562.9471252595969,2465.4610738424617,574.7655426924331,2418.1875322849796,549.8157268275968C2371.5716599688444,524.8657370125192,2343.99409224925,463.1473719929932,2321.670233805104,406.6819609386568C2298.691040714952,350.8729328094113,2280.305141076143,300.31658398707924,2278.337489188474,241.22477148117378C2275.7093757003195,182.78925950287663,2288.1841714806083,115.81846236888506,2328.894021116323,84.95941489944101C2369.601307274798,54.75698381462221,2437.228400358759,60.00964023334621,2492.3809265443283,75.11090155213506C2547.5333611771375,90.86873347916975,2589.5533307883106,116.47507875351036,2638.7973165925996,145.36450595097563ZZ" style="fill: url(&quot;#fill-color-gradient_b47870a0-d76a-11ec-95c3-9f00e036712f&quot;);"/></g></svg>