<svg
	width="32"
	height="32"
	viewBox="591.684 120.785 32 32"
	xmlns="http://www.w3.org/2000/svg"
>
	<style>
		@media (prefers-color-scheme: dark) {
			.dark {
				display: none;
			}
			.light {
				display: true;
			}
		}
		@media (prefers-color-scheme: light) {
			.dark {
				display: true;
			}
			.light {
				display: none;
			}
		}
	</style>
	<path
		style="fill: #78aeed"
		d="m 591.684,129.03663 7.45297,15.4968 h 2.85822 l 6.37215,-13.19821 h 1.10965 2.85821 5.01628 c 2.04559,0 3.30617,0.58767 3.30617,2.57716 0,1.98955 -1.26058,2.57841 -3.30617,2.57841 h -5.01628 -2.85821 v 8.04143 h 2.85821 v -5.74406 h 5.01628 c 3.64282,0 6.27646,-1.51318 6.33252,-4.87578 v -0.0277 c 0,-3.36255 -2.74573,-4.84811 -6.33252,-4.84811 h -7.87449 -3.08159 l -5.77289,12.60975 -5.71641,-12.60975 z"
		class="light"
	/>
	<path
		style="fill: #1c71d8"
		d="m 591.684,129.03663 7.45297,15.4968 h 2.85822 l 6.37215,-13.19821 h 1.10965 2.85821 5.01628 c 2.04559,0 3.30617,0.58767 3.30617,2.57716 0,1.98955 -1.26058,2.57841 -3.30617,2.57841 h -5.01628 -2.85821 v 8.04143 h 2.85821 v -5.74406 h 5.01628 c 3.64282,0 6.27646,-1.51318 6.33252,-4.87578 v -0.0277 c 0,-3.36255 -2.74573,-4.84811 -6.33252,-4.84811 h -7.87449 -3.08159 l -5.77289,12.60975 -5.71641,-12.60975 z"
		class="dark"
	/>
</svg>
