<?xml version="1.0" encoding="UTF-8" standalone="no"?>
<!-- Created with Inkscape (http://www.inkscape.org/) -->

<svg
   width="914.13202"
   height="740.52991"
   viewBox="0 0 241.86409 195.93187"
   version="1.1"
   id="svg5"
   xml:space="preserve"
   xmlns:xlink="http://www.w3.org/1999/xlink"
   xmlns="http://www.w3.org/2000/svg"
   xmlns:svg="http://www.w3.org/2000/svg"><defs
     id="defs2"><linearGradient
       id="linearGradient14036"><stop
         style="stop-color:#1c71d8;stop-opacity:1;"
         offset="0"
         id="stop14032" /><stop
         style="stop-color:#2ec27e;stop-opacity:1;"
         offset="1"
         id="stop14034" /></linearGradient><linearGradient
       id="linearGradient8271"><stop
         style="stop-color:#63452c;stop-opacity:1;"
         offset="0"
         id="stop8267" /><stop
         style="stop-color:#805939;stop-opacity:1"
         offset="0.27874756"
         id="stop8275" /><stop
         style="stop-color:#553b26;stop-opacity:1"
         offset="1"
         id="stop8269" /></linearGradient><linearGradient
       xlink:href="#linearGradient14036"
       id="linearGradient866"
       gradientUnits="userSpaceOnUse"
       x1="55.321144"
       y1="93.47657"
       x2="136.04533"
       y2="136.84415" /><linearGradient
       xlink:href="#linearGradient8271"
       id="linearGradient868"
       gradientUnits="userSpaceOnUse"
       gradientTransform="matrix(1.1845985,0,0,1.1845985,-141.89836,-97.468004)"
       x1="832"
       y1="776.12549"
       x2="896"
       y2="776.12549" /></defs><g
     id="layer1"
     transform="translate(-1256.867,-399.29373)"><path
       style="fill:#000000;fill-opacity:0.0973172;stroke:none;stroke-width:13.2292;stroke-linecap:round;stroke-linejoin:round"
       d="m 1328.8015,416.98136 a 16.90069,16.90069 0 0 0 -16.9008,16.90078 16.90069,16.90069 0 0 0 16.9008,16.90077 h 12.6757 a 4.2251725,4.2251725 0 0 1 4.2251,4.22507 4.2251725,4.2251725 0 0 1 -4.2251,4.22506 h -67.692 a 16.90069,16.90069 0 0 0 -0.018,0 16.90069,16.90069 0 0 0 -16.9002,16.90078 16.90069,16.90069 0 0 0 16.9002,16.90078 16.90069,16.90069 0 0 0 0.018,-5.2e-4 v 5.2e-4 h 40.6549 a 4.2251725,4.2251725 0 0 1 4.2251,4.22506 4.2251725,4.2251725 0 0 1 -4.2251,4.22507 h -10.6753 a 16.90069,16.90069 0 0 0 -0.018,0 16.90069,16.90069 0 0 0 -16.9008,16.90077 16.90069,16.90069 0 0 0 16.9008,16.90078 16.90069,16.90069 0 0 0 0.018,-5.2e-4 v 5.2e-4 h 45.8112 a 4.2251725,4.2251725 0 0 1 4.2255,4.22506 4.2251725,4.2251725 0 0 1 -4.2255,4.22507 h -15.996 v 5.2e-4 a 16.90069,16.90069 0 0 0 -0.018,0 16.90069,16.90069 0 0 0 -16.9007,16.90026 16.90069,16.90069 0 0 0 16.9007,16.90077 16.90069,16.90069 0 0 0 0.018,-5.1e-4 v 5.1e-4 h 99.2188 a 16.90069,16.90069 0 0 0 16.9008,-16.90077 16.90069,16.90069 0 0 0 -16.9008,-16.90026 v -5.2e-4 h -8.1168 a 4.2251725,4.2251725 0 0 1 -4.2251,-4.22507 4.2251725,4.2251725 0 0 1 4.2251,-4.22506 h 57.1303 v -5.2e-4 a 16.90069,16.90069 0 0 0 0.018,5.2e-4 16.90069,16.90069 0 0 0 16.9008,-16.90078 16.90069,16.90069 0 0 0 -16.9008,-16.90077 16.90069,16.90069 0 0 0 -0.018,5.1e-4 v -5.1e-4 h -43.0531 a 4.2251725,4.2251725 0 0 1 -4.2251,-4.22507 4.2251725,4.2251725 0 0 1 4.2251,-4.22506 h 13.0741 v -5.2e-4 a 16.90069,16.90069 0 0 0 0.018,5.2e-4 16.90069,16.90069 0 0 0 16.9008,-16.90078 16.90069,16.90069 0 0 0 -16.9008,-16.90078 16.90069,16.90069 0 0 0 -0.018,5.2e-4 v -5.2e-4 h -35.2506 a 4.2251725,4.2251725 0 0 1 -4.225,-4.22506 4.2251725,4.2251725 0 0 1 4.225,-4.22507 h 10.3973 a 16.90069,16.90069 0 0 0 16.9008,-16.90077 16.90069,16.90069 0 0 0 -16.9008,-16.90078 z"
       id="path722" /><g
       id="g746"
       transform="matrix(0.47765879,0,0,0.47765879,995.85508,112.87531)"><g
         transform="matrix(1.1845985,0,0,1.1845985,508.92658,295.46419)"
         id="g728"
         style="stroke-width:0.844168"><path
           id="path724"
           style="fill:#2ec27e;stroke-width:0.844168;stop-color:#000000"
           d="m 331.24085,309.93375 c 0,9.72192 -7.45638,17.60309 -16.6543,17.60309 -9.19792,0 -16.6543,-7.88117 -16.6543,-17.60309 0,-9.72192 16.6543,-53.16698 16.6543,-53.16698 0,0 16.6543,43.44506 16.6543,53.16698 z" /><path
           id="path726"
           style="fill:#26a269;stroke-width:0.844168;stop-color:#000000"
           d="m 314.58594,256.76758 c 0,0 -0.55781,1.49266 -0.69727,1.85937 V 327.5 c 0.23297,0.0102 0.46192,0.0371 0.69727,0.0371 9.19792,0 16.65429,-7.8816 16.65429,-17.60352 0,-9.72192 -16.65429,-53.16601 -16.65429,-53.16601 z" /></g><g
         transform="matrix(0.98493712,0.98493709,-0.98493709,0.98493712,916.18301,97.97537)"
         id="g734"
         style="stroke-width:0.844168"><path
           d="m 331.24085,309.93375 c 0,9.72192 -7.45638,17.60309 -16.6543,17.60309 -9.19792,0 -16.6543,-7.88117 -16.6543,-17.60309 0,-9.72192 16.6543,-53.16698 16.6543,-53.16698 0,0 16.6543,43.44506 16.6543,53.16698 z"
           style="fill:#2ec27e;stroke-width:0.844168;stop-color:#000000"
           id="path730" /><path
           d="m 314.58594,256.76758 c 0,0 -0.55781,1.49266 -0.69727,1.85937 V 327.5 c 0.23297,0.0102 0.46192,0.0371 0.69727,0.0371 9.19792,0 16.65429,-7.8816 16.65429,-17.60352 0,-9.72192 -16.65429,-53.16601 -16.65429,-53.16601 z"
           style="fill:#26a269;stroke-width:0.844168;stop-color:#000000"
           id="path732" /></g><path
         id="path736"
         d="m 881.32196,655.81361 -5.34158,170.33492 11.00218,0.36484 z"
         style="fill:#1b754c;fill-opacity:1;stroke:none;stroke-width:1px;stroke-linecap:butt;stroke-linejoin:miter;stroke-opacity:1" /><path
         style="fill:#1a704b;fill-opacity:1;stroke:none;stroke-width:0.610409px;stroke-linecap:butt;stroke-linejoin:miter;stroke-opacity:1"
         d="m 951.49843,681.48593 -71.68059,68.94272 4.59134,4.90627 z"
         id="path738" /><path
         style="fill:url(#linearGradient868);fill-opacity:1;stroke:none;stroke-width:1px;stroke-linecap:butt;stroke-linejoin:miter;stroke-opacity:1"
         d="m 843.68759,793.64738 h 75.8143 l -8.29219,56.56342 h -59.22992 z"
         id="path740" /><path
         style="fill:#573a28;fill-opacity:1;stroke:none;stroke-width:1px;stroke-linecap:butt;stroke-linejoin:miter;stroke-opacity:1"
         d="m 911.2097,850.2108 8.29219,-56.56342 -20.86003,0.15038 -3.87694,56.34371 z"
         id="path742" /><path
         style="display:inline;opacity:1;fill:#1b754c;fill-opacity:1;stroke:none;stroke-width:1px;stroke-linecap:butt;stroke-linejoin:miter;stroke-opacity:1"
         d="m 879.65895,732.27179 -7.98291,-4.82868 0.8131,-4.03113 7.79559,2.73131 z"
         id="path744" /></g><g
       transform="matrix(0.23578827,0,0,0.23578827,73.380889,1958.3827)"
       id="g848"
       style="stroke-width:1.12212"><g
         transform="matrix(3.9327289,0,0,3.9327289,5104.9706,-6725.6512)"
         id="g838"
         style="display:inline;stroke-width:1.12212"><rect
           style="opacity:1;vector-effect:none;fill:#000000;fill-opacity:1;stroke:none;stroke-width:1.78137;stroke-linecap:round;stroke-linejoin:miter;stroke-miterlimit:4;stroke-dasharray:none;stroke-dashoffset:0;stroke-opacity:1;marker:none;marker-start:none;marker-mid:none;marker-end:none;paint-order:normal"
           id="rect748"
           width="95.25"
           height="58.208336"
           x="47.625"
           y="84.666664"
           rx="2.8838212"
           ry="2.8838212" /><rect
           ry="2.8838212"
           rx="2.8838212"
           y="145.25624"
           x="47.625"
           height="58.208336"
           width="95.25"
           id="rect750"
           style="opacity:1;vector-effect:none;fill:#000000;fill-opacity:0.102362;stroke:none;stroke-width:1.78137;stroke-linecap:round;stroke-linejoin:miter;stroke-miterlimit:4;stroke-dasharray:none;stroke-dashoffset:0;stroke-opacity:1;marker:none;marker-start:none;marker-mid:none;marker-end:none;paint-order:normal" /><rect
           style="opacity:1;vector-effect:none;fill:#deddda;fill-opacity:1;stroke:none;stroke-width:1.78137;stroke-linecap:round;stroke-linejoin:miter;stroke-miterlimit:4;stroke-dasharray:none;stroke-dashoffset:0;stroke-opacity:1;marker:none;marker-start:none;marker-mid:none;marker-end:none;paint-order:normal"
           id="rect752"
           width="95.25"
           height="58.208336"
           x="47.625"
           y="144.19792"
           rx="2.8838212"
           ry="2.8838212" /><rect
           ry="2.8838212"
           rx="2.8838212"
           y="142.875"
           x="47.625"
           height="58.208336"
           width="95.25"
           id="rect754"
           style="opacity:1;vector-effect:none;fill:#f6f5f4;fill-opacity:1;stroke:none;stroke-width:1.78137;stroke-linecap:round;stroke-linejoin:miter;stroke-miterlimit:4;stroke-dasharray:none;stroke-dashoffset:0;stroke-opacity:1;marker:none;marker-start:none;marker-mid:none;marker-end:none;paint-order:normal" /><rect
           style="opacity:1;vector-effect:none;fill:#c0bfbc;fill-opacity:1;stroke:none;stroke-width:1.78137;stroke-linecap:round;stroke-linejoin:miter;stroke-miterlimit:4;stroke-dasharray:none;stroke-dashoffset:0;stroke-opacity:1;marker:none;marker-start:none;marker-mid:none;marker-end:none;paint-order:normal"
           id="rect756"
           width="84.666664"
           height="29.104166"
           x="52.916664"
           y="148.16667"
           rx="1.9577779"
           ry="1.9577779" /><rect
           ry="1.9577779"
           rx="1.9577779"
           y="148.69583"
           x="52.916664"
           height="29.104166"
           width="84.666664"
           id="rect758"
           style="opacity:1;vector-effect:none;fill:#deddda;fill-opacity:1;stroke:none;stroke-width:1.78137;stroke-linecap:round;stroke-linejoin:miter;stroke-miterlimit:4;stroke-dasharray:none;stroke-dashoffset:0;stroke-opacity:1;marker:none;marker-start:none;marker-mid:none;marker-end:none;paint-order:normal" /><rect
           ry="0.82584423"
           rx="0.82584423"
           y="137.58334"
           x="63.5"
           height="7.4083304"
           width="63.5"
           id="rect760"
           style="opacity:1;vector-effect:none;fill:#000000;fill-opacity:1;stroke:none;stroke-width:1.78137;stroke-linecap:round;stroke-linejoin:miter;stroke-miterlimit:4;stroke-dasharray:none;stroke-dashoffset:0;stroke-opacity:1;marker:none;marker-start:none;marker-mid:none;marker-end:none;paint-order:normal" /><rect
           ry="2.883826"
           rx="2.8838263"
           y="179.91667"
           x="82.020836"
           height="15.874996"
           width="26.458313"
           id="rect762"
           style="opacity:1;vector-effect:none;fill:#deddda;fill-opacity:1;stroke:none;stroke-width:1.78137;stroke-linecap:round;stroke-linejoin:miter;stroke-miterlimit:4;stroke-dasharray:none;stroke-dashoffset:0;stroke-opacity:1;marker:none;marker-start:none;marker-mid:none;marker-end:none;paint-order:normal" /><rect
           ry="1.5741988"
           rx="1.5741988"
           y="86.283562"
           x="49.15839"
           height="54.974541"
           width="92.18322"
           id="rect764"
           style="opacity:1;vector-effect:none;fill:url(#linearGradient866);fill-opacity:1;stroke:none;stroke-width:1.78137;stroke-linecap:round;stroke-linejoin:miter;stroke-miterlimit:4;stroke-dasharray:none;stroke-dashoffset:0;stroke-opacity:1;marker:none;marker-start:none;marker-mid:none;marker-end:none;paint-order:normal" /><rect
           style="opacity:1;vector-effect:none;fill:#241f31;fill-opacity:1;stroke:none;stroke-width:1.78137;stroke-linecap:round;stroke-linejoin:miter;stroke-miterlimit:4;stroke-dasharray:none;stroke-dashoffset:0;stroke-opacity:1;marker:none;marker-start:none;marker-mid:none;marker-end:none;paint-order:normal"
           id="rect766"
           width="46.302094"
           height="5.2916665"
           x="74.083328"
           y="170.65625"
           rx="1.0129328"
           ry="1.0129329" /><rect
           ry="1.0129329"
           rx="1.0129329"
           y="170.65625"
           x="121.70834"
           height="5.2916665"
           width="6.6145716"
           id="rect768"
           style="opacity:1;vector-effect:none;fill:#241f31;fill-opacity:1;stroke:none;stroke-width:1.78137;stroke-linecap:round;stroke-linejoin:miter;stroke-miterlimit:4;stroke-dasharray:none;stroke-dashoffset:0;stroke-opacity:1;marker:none;marker-start:none;marker-mid:none;marker-end:none;paint-order:normal" /><rect
           style="opacity:1;vector-effect:none;fill:#241f31;fill-opacity:1;stroke:none;stroke-width:1.78137;stroke-linecap:round;stroke-linejoin:miter;stroke-miterlimit:4;stroke-dasharray:none;stroke-dashoffset:0;stroke-opacity:1;marker:none;marker-start:none;marker-mid:none;marker-end:none;paint-order:normal"
           id="rect770"
           width="6.6145716"
           height="5.2916665"
           x="129.64584"
           y="170.65625"
           rx="1.0129329"
           ry="1.0129329" /><rect
           ry="1.0129329"
           rx="1.0129329"
           y="164.04166"
           x="125.67709"
           height="5.2916665"
           width="5.2916646"
           id="rect772"
           style="opacity:1;vector-effect:none;fill:#241f31;fill-opacity:1;stroke:none;stroke-width:1.78137;stroke-linecap:round;stroke-linejoin:miter;stroke-miterlimit:4;stroke-dasharray:none;stroke-dashoffset:0;stroke-opacity:1;marker:none;marker-start:none;marker-mid:none;marker-end:none;paint-order:normal" /><rect
           style="opacity:1;vector-effect:none;fill:#241f31;fill-opacity:1;stroke:none;stroke-width:1.78137;stroke-linecap:round;stroke-linejoin:miter;stroke-miterlimit:4;stroke-dasharray:none;stroke-dashoffset:0;stroke-opacity:1;marker:none;marker-start:none;marker-mid:none;marker-end:none;paint-order:normal"
           id="rect774"
           width="6.6145716"
           height="5.2916665"
           x="117.73959"
           y="164.04166"
           rx="1.0129329"
           ry="1.0129329" /><rect
           ry="1.0129329"
           rx="1.0129329"
           y="164.04166"
           x="109.80209"
           height="5.2916665"
           width="6.6145716"
           id="rect776"
           style="opacity:1;vector-effect:none;fill:#241f31;fill-opacity:1;stroke:none;stroke-width:1.78137;stroke-linecap:round;stroke-linejoin:miter;stroke-miterlimit:4;stroke-dasharray:none;stroke-dashoffset:0;stroke-opacity:1;marker:none;marker-start:none;marker-mid:none;marker-end:none;paint-order:normal" /><rect
           style="opacity:1;vector-effect:none;fill:#241f31;fill-opacity:1;stroke:none;stroke-width:1.78137;stroke-linecap:round;stroke-linejoin:miter;stroke-miterlimit:4;stroke-dasharray:none;stroke-dashoffset:0;stroke-opacity:1;marker:none;marker-start:none;marker-mid:none;marker-end:none;paint-order:normal"
           id="rect778"
           width="6.6145716"
           height="5.2916665"
           x="101.86459"
           y="164.04166"
           rx="1.0129329"
           ry="1.0129329" /><rect
           ry="1.0129329"
           rx="1.0129329"
           y="164.04166"
           x="93.927086"
           height="5.2916665"
           width="6.6145716"
           id="rect780"
           style="opacity:1;vector-effect:none;fill:#241f31;fill-opacity:1;stroke:none;stroke-width:1.78137;stroke-linecap:round;stroke-linejoin:miter;stroke-miterlimit:4;stroke-dasharray:none;stroke-dashoffset:0;stroke-opacity:1;marker:none;marker-start:none;marker-mid:none;marker-end:none;paint-order:normal" /><rect
           style="opacity:1;vector-effect:none;fill:#241f31;fill-opacity:1;stroke:none;stroke-width:1.78137;stroke-linecap:round;stroke-linejoin:miter;stroke-miterlimit:4;stroke-dasharray:none;stroke-dashoffset:0;stroke-opacity:1;marker:none;marker-start:none;marker-mid:none;marker-end:none;paint-order:normal"
           id="rect782"
           width="6.6145716"
           height="5.2916665"
           x="85.989586"
           y="164.04166"
           rx="1.0129329"
           ry="1.0129329" /><rect
           ry="1.0129329"
           rx="1.0129329"
           y="164.04166"
           x="78.052094"
           height="5.2916665"
           width="6.6145716"
           id="rect784"
           style="opacity:1;vector-effect:none;fill:#241f31;fill-opacity:1;stroke:none;stroke-width:1.78137;stroke-linecap:round;stroke-linejoin:miter;stroke-miterlimit:4;stroke-dasharray:none;stroke-dashoffset:0;stroke-opacity:1;marker:none;marker-start:none;marker-mid:none;marker-end:none;paint-order:normal" /><rect
           style="opacity:1;vector-effect:none;fill:#241f31;fill-opacity:1;stroke:none;stroke-width:1.78137;stroke-linecap:round;stroke-linejoin:miter;stroke-miterlimit:4;stroke-dasharray:none;stroke-dashoffset:0;stroke-opacity:1;marker:none;marker-start:none;marker-mid:none;marker-end:none;paint-order:normal"
           id="rect786"
           width="6.6145716"
           height="5.2916665"
           x="70.114586"
           y="164.04166"
           rx="1.0129329"
           ry="1.0129329" /><rect
           ry="1.0129329"
           rx="1.0129329"
           y="164.04166"
           x="62.177082"
           height="5.2916665"
           width="6.6145716"
           id="rect788"
           style="opacity:1;vector-effect:none;fill:#241f31;fill-opacity:1;stroke:none;stroke-width:1.78137;stroke-linecap:round;stroke-linejoin:miter;stroke-miterlimit:4;stroke-dasharray:none;stroke-dashoffset:0;stroke-opacity:1;marker:none;marker-start:none;marker-mid:none;marker-end:none;paint-order:normal" /><rect
           style="opacity:1;vector-effect:none;fill:#241f31;fill-opacity:1;stroke:none;stroke-width:1.78137;stroke-linecap:round;stroke-linejoin:miter;stroke-miterlimit:4;stroke-dasharray:none;stroke-dashoffset:0;stroke-opacity:1;marker:none;marker-start:none;marker-mid:none;marker-end:none;paint-order:normal"
           id="rect790"
           width="6.6145716"
           height="5.2916665"
           x="121.70835"
           y="157.42708"
           rx="1.0129329"
           ry="1.0129329" /><rect
           ry="1.0129329"
           rx="1.0129329"
           y="157.42708"
           x="113.77085"
           height="5.2916665"
           width="6.6145716"
           id="rect792"
           style="opacity:1;vector-effect:none;fill:#241f31;fill-opacity:1;stroke:none;stroke-width:1.78137;stroke-linecap:round;stroke-linejoin:miter;stroke-miterlimit:4;stroke-dasharray:none;stroke-dashoffset:0;stroke-opacity:1;marker:none;marker-start:none;marker-mid:none;marker-end:none;paint-order:normal" /><rect
           style="opacity:1;vector-effect:none;fill:#241f31;fill-opacity:1;stroke:none;stroke-width:1.78137;stroke-linecap:round;stroke-linejoin:miter;stroke-miterlimit:4;stroke-dasharray:none;stroke-dashoffset:0;stroke-opacity:1;marker:none;marker-start:none;marker-mid:none;marker-end:none;paint-order:normal"
           id="rect794"
           width="6.6145716"
           height="5.2916665"
           x="105.83335"
           y="157.42708"
           rx="1.0129329"
           ry="1.0129329" /><rect
           ry="1.0129329"
           rx="1.0129329"
           y="157.42708"
           x="97.895851"
           height="5.2916665"
           width="6.6145716"
           id="rect796"
           style="opacity:1;vector-effect:none;fill:#241f31;fill-opacity:1;stroke:none;stroke-width:1.78137;stroke-linecap:round;stroke-linejoin:miter;stroke-miterlimit:4;stroke-dasharray:none;stroke-dashoffset:0;stroke-opacity:1;marker:none;marker-start:none;marker-mid:none;marker-end:none;paint-order:normal" /><rect
           style="opacity:1;vector-effect:none;fill:#241f31;fill-opacity:1;stroke:none;stroke-width:1.78137;stroke-linecap:round;stroke-linejoin:miter;stroke-miterlimit:4;stroke-dasharray:none;stroke-dashoffset:0;stroke-opacity:1;marker:none;marker-start:none;marker-mid:none;marker-end:none;paint-order:normal"
           id="rect798"
           width="6.6145716"
           height="5.2916665"
           x="89.958344"
           y="157.42708"
           rx="1.0129329"
           ry="1.0129329" /><rect
           ry="1.0129329"
           rx="1.0129329"
           y="157.42708"
           x="82.020844"
           height="5.2916665"
           width="6.6145716"
           id="rect800"
           style="opacity:1;vector-effect:none;fill:#241f31;fill-opacity:1;stroke:none;stroke-width:1.78137;stroke-linecap:round;stroke-linejoin:miter;stroke-miterlimit:4;stroke-dasharray:none;stroke-dashoffset:0;stroke-opacity:1;marker:none;marker-start:none;marker-mid:none;marker-end:none;paint-order:normal" /><rect
           style="opacity:1;vector-effect:none;fill:#241f31;fill-opacity:1;stroke:none;stroke-width:1.78137;stroke-linecap:round;stroke-linejoin:miter;stroke-miterlimit:4;stroke-dasharray:none;stroke-dashoffset:0;stroke-opacity:1;marker:none;marker-start:none;marker-mid:none;marker-end:none;paint-order:normal"
           id="rect802"
           width="6.6145716"
           height="5.2916665"
           x="74.083351"
           y="157.42708"
           rx="1.0129329"
           ry="1.0129329" /><rect
           ry="1.0129329"
           rx="1.0129329"
           y="157.42708"
           x="66.145844"
           height="5.2916665"
           width="6.6145716"
           id="rect804"
           style="opacity:1;vector-effect:none;fill:#241f31;fill-opacity:1;stroke:none;stroke-width:1.78137;stroke-linecap:round;stroke-linejoin:miter;stroke-miterlimit:4;stroke-dasharray:none;stroke-dashoffset:0;stroke-opacity:1;marker:none;marker-start:none;marker-mid:none;marker-end:none;paint-order:normal" /><rect
           style="opacity:1;vector-effect:none;fill:#241f31;fill-opacity:1;stroke:none;stroke-width:1.78137;stroke-linecap:round;stroke-linejoin:miter;stroke-miterlimit:4;stroke-dasharray:none;stroke-dashoffset:0;stroke-opacity:1;marker:none;marker-start:none;marker-mid:none;marker-end:none;paint-order:normal"
           id="rect806"
           width="10.583332"
           height="5.2916665"
           x="54.239582"
           y="157.42708"
           rx="1.0129329"
           ry="1.0129329" /><rect
           ry="1.0129329"
           rx="1.0129329"
           y="150.8125"
           x="125.6771"
           height="5.2916665"
           width="10.583317"
           id="rect808"
           style="opacity:1;vector-effect:none;fill:#241f31;fill-opacity:1;stroke:none;stroke-width:1.78137;stroke-linecap:round;stroke-linejoin:miter;stroke-miterlimit:4;stroke-dasharray:none;stroke-dashoffset:0;stroke-opacity:1;marker:none;marker-start:none;marker-mid:none;marker-end:none;paint-order:normal" /><rect
           style="opacity:1;vector-effect:none;fill:#241f31;fill-opacity:1;stroke:none;stroke-width:1.78137;stroke-linecap:round;stroke-linejoin:miter;stroke-miterlimit:4;stroke-dasharray:none;stroke-dashoffset:0;stroke-opacity:1;marker:none;marker-start:none;marker-mid:none;marker-end:none;paint-order:normal"
           id="rect810"
           width="6.6145716"
           height="5.2916665"
           x="117.7396"
           y="150.8125"
           rx="1.0129329"
           ry="1.0129329" /><rect
           ry="1.0129329"
           rx="1.0129329"
           y="150.8125"
           x="109.8021"
           height="5.2916665"
           width="6.6145716"
           id="rect812"
           style="opacity:1;vector-effect:none;fill:#241f31;fill-opacity:1;stroke:none;stroke-width:1.78137;stroke-linecap:round;stroke-linejoin:miter;stroke-miterlimit:4;stroke-dasharray:none;stroke-dashoffset:0;stroke-opacity:1;marker:none;marker-start:none;marker-mid:none;marker-end:none;paint-order:normal" /><rect
           style="opacity:1;vector-effect:none;fill:#241f31;fill-opacity:1;stroke:none;stroke-width:1.78137;stroke-linecap:round;stroke-linejoin:miter;stroke-miterlimit:4;stroke-dasharray:none;stroke-dashoffset:0;stroke-opacity:1;marker:none;marker-start:none;marker-mid:none;marker-end:none;paint-order:normal"
           id="rect814"
           width="6.6145716"
           height="5.2916665"
           x="101.8646"
           y="150.8125"
           rx="1.0129329"
           ry="1.0129329" /><rect
           ry="1.0129329"
           rx="1.0129329"
           y="150.8125"
           x="93.927094"
           height="5.2916665"
           width="6.6145716"
           id="rect816"
           style="opacity:1;vector-effect:none;fill:#241f31;fill-opacity:1;stroke:none;stroke-width:1.78137;stroke-linecap:round;stroke-linejoin:miter;stroke-miterlimit:4;stroke-dasharray:none;stroke-dashoffset:0;stroke-opacity:1;marker:none;marker-start:none;marker-mid:none;marker-end:none;paint-order:normal" /><rect
           style="opacity:1;vector-effect:none;fill:#241f31;fill-opacity:1;stroke:none;stroke-width:1.78137;stroke-linecap:round;stroke-linejoin:miter;stroke-miterlimit:4;stroke-dasharray:none;stroke-dashoffset:0;stroke-opacity:1;marker:none;marker-start:none;marker-mid:none;marker-end:none;paint-order:normal"
           id="rect818"
           width="6.6145716"
           height="5.2916665"
           x="85.989594"
           y="150.8125"
           rx="1.0129329"
           ry="1.0129329" /><rect
           ry="1.0129329"
           rx="1.0129329"
           y="150.8125"
           x="78.052101"
           height="5.2916665"
           width="6.6145716"
           id="rect820"
           style="opacity:1;vector-effect:none;fill:#241f31;fill-opacity:1;stroke:none;stroke-width:1.78137;stroke-linecap:round;stroke-linejoin:miter;stroke-miterlimit:4;stroke-dasharray:none;stroke-dashoffset:0;stroke-opacity:1;marker:none;marker-start:none;marker-mid:none;marker-end:none;paint-order:normal" /><rect
           style="opacity:1;vector-effect:none;fill:#241f31;fill-opacity:1;stroke:none;stroke-width:1.78137;stroke-linecap:round;stroke-linejoin:miter;stroke-miterlimit:4;stroke-dasharray:none;stroke-dashoffset:0;stroke-opacity:1;marker:none;marker-start:none;marker-mid:none;marker-end:none;paint-order:normal"
           id="rect822"
           width="6.6145716"
           height="5.2916665"
           x="70.114594"
           y="150.8125"
           rx="1.0129329"
           ry="1.0129329" /><rect
           ry="1.0129329"
           rx="1.0129329"
           y="150.8125"
           x="62.177082"
           height="5.2916665"
           width="6.6145716"
           id="rect824"
           style="opacity:1;vector-effect:none;fill:#241f31;fill-opacity:1;stroke:none;stroke-width:1.78137;stroke-linecap:round;stroke-linejoin:miter;stroke-miterlimit:4;stroke-dasharray:none;stroke-dashoffset:0;stroke-opacity:1;marker:none;marker-start:none;marker-mid:none;marker-end:none;paint-order:normal" /><rect
           style="opacity:1;vector-effect:none;fill:#241f31;fill-opacity:1;stroke:none;stroke-width:1.78137;stroke-linecap:round;stroke-linejoin:miter;stroke-miterlimit:4;stroke-dasharray:none;stroke-dashoffset:0;stroke-opacity:1;marker:none;marker-start:none;marker-mid:none;marker-end:none;paint-order:normal"
           id="rect826"
           width="6.6145716"
           height="5.2916665"
           x="54.239582"
           y="150.8125"
           rx="1.0129329"
           ry="1.0129329" /><rect
           style="opacity:1;vector-effect:none;fill:#241f31;fill-opacity:1;stroke:none;stroke-width:1.78137;stroke-linecap:round;stroke-linejoin:miter;stroke-miterlimit:4;stroke-dasharray:none;stroke-dashoffset:0;stroke-opacity:1;marker:none;marker-start:none;marker-mid:none;marker-end:none;paint-order:normal"
           id="rect828"
           width="6.6145716"
           height="5.2916665"
           x="54.239594"
           y="164.04166"
           rx="1.0129329"
           ry="1.0129329" /><rect
           style="opacity:1;vector-effect:none;fill:#241f31;fill-opacity:1;stroke:none;stroke-width:1.78137;stroke-linecap:round;stroke-linejoin:miter;stroke-miterlimit:4;stroke-dasharray:none;stroke-dashoffset:0;stroke-opacity:1;marker:none;marker-start:none;marker-mid:none;marker-end:none;paint-order:normal"
           id="rect830"
           width="6.6145716"
           height="5.2916665"
           x="66.145844"
           y="170.65625"
           rx="1.0129329"
           ry="1.0129329" /><rect
           ry="1.0129329"
           rx="1.0129329"
           y="170.65625"
           x="54.239582"
           height="5.2916665"
           width="10.583351"
           id="rect832"
           style="opacity:1;vector-effect:none;fill:#241f31;fill-opacity:1;stroke:none;stroke-width:1.78137;stroke-linecap:round;stroke-linejoin:miter;stroke-miterlimit:4;stroke-dasharray:none;stroke-dashoffset:0;stroke-opacity:1;marker:none;marker-start:none;marker-mid:none;marker-end:none;paint-order:normal" /><rect
           ry="1.0129329"
           rx="1.0129329"
           y="157.42708"
           x="129.64583"
           height="5.2916665"
           width="6.6145716"
           id="rect834"
           style="opacity:1;vector-effect:none;fill:#241f31;fill-opacity:1;stroke:none;stroke-width:1.78137;stroke-linecap:round;stroke-linejoin:miter;stroke-miterlimit:4;stroke-dasharray:none;stroke-dashoffset:0;stroke-opacity:1;marker:none;marker-start:none;marker-mid:none;marker-end:none;paint-order:normal" /><rect
           style="opacity:1;vector-effect:none;fill:#241f31;fill-opacity:1;stroke:none;stroke-width:1.78137;stroke-linecap:round;stroke-linejoin:miter;stroke-miterlimit:4;stroke-dasharray:none;stroke-dashoffset:0;stroke-opacity:1;marker:none;marker-start:none;marker-mid:none;marker-end:none;paint-order:normal"
           id="rect836"
           width="3.968729"
           height="11.906242"
           x="132.29167"
           y="157.42708"
           rx="1.0129329"
           ry="1.0129329" /></g><g
         fill="#ffffff"
         stroke-width="1.26575"
         style="display:inline;enable-background:new"
         id="g846"
         transform="matrix(0.78754444,0,0,0.78754444,4724.3556,-6458.1082)"><path
           opacity="0.1"
           d="m 101.339,138.053 12.053,-12.062 h -12.053 z"
           style="stroke-width:1.59989"
           transform="matrix(4.54252,0,0,4.54252,592.821,-283.428)"
           id="path840" /><path
           opacity="0.2"
           d="m 125.445,113.937 -12.053,12.053 h 12.053 z m 0,12.053 -12.053,12.053 h 12.053 z"
           style="stroke-width:1.59989"
           transform="matrix(4.54252,0,0,4.54252,592.821,-283.428)"
           id="path842" /><path
           opacity="0.2"
           d="m 101.339,101.884 24.106,24.106 h -24.106 z"
           style="stroke-width:1.59989"
           transform="matrix(4.54252,0,0,4.54252,592.821,-283.428)"
           id="path844" /></g></g><g
       transform="matrix(0.14030023,0,0,0.14030023,989.88227,1377.1916)"
       id="g864"
       style="stroke-width:1.89127"><path
         style="opacity:1;vector-effect:none;fill:#77767b;fill-opacity:0.968504;stroke:none;stroke-width:30.2603;stroke-linecap:butt;stroke-linejoin:miter;stroke-miterlimit:4;stroke-dasharray:none;stroke-dashoffset:0;stroke-opacity:1;marker:none;marker-start:none;marker-mid:none;marker-end:none;paint-order:normal"
         d="m 3070.8671,-5952.9191 h 115.2658 c 12.6683,0 27.5304,11.0883 22.8671,22.8671 l -16,40.4139 c -3.8479,9.7192 -8.4154,18.8685 -18.8685,18.8685 h -91.263 c -10.4531,0 -15.0206,-9.1493 -18.8685,-18.8685 l -16,-40.4139 c -4.6633,-11.7788 10.1988,-22.8671 22.8671,-22.8671 z"
         id="path850" /><path
         style="opacity:1;vector-effect:none;fill:#5e5c64;fill-opacity:0.968504;stroke:none;stroke-width:30.2603;stroke-linecap:butt;stroke-linejoin:miter;stroke-miterlimit:4;stroke-dasharray:none;stroke-dashoffset:0;stroke-opacity:1;marker:none;marker-start:none;marker-mid:none;marker-end:none;paint-order:normal"
         d="m 3143.1328,924.56055 c 12.6683,0 24.7276,10.33618 22.8672,22.86718 l -6,40.41407 c -1.5351,10.3399 -8.416,18.8691 -18.8691,18.8691 h 33 c 10.4531,0 15.0212,-9.1499 18.8691,-18.8691 l 16,-40.41407 c 4.6633,-11.7788 -10.1989,-22.86718 -22.8672,-22.86718 z"
         transform="translate(0,-6877.4803)"
         id="path852" /><path
         style="fill:#cdab8f;stroke:none;stroke-width:1.89127px;stroke-linecap:butt;stroke-linejoin:miter;stroke-opacity:1"
         d="m 3086,-6004.4803 c 0,0 41,-1 56,-18 15,-17 19,-30 28,-30 9,0 -2,23 12,23 14,0 29,-35 45,-34 16,1 11,26 5,38 -6,12 -25,28 -25,28 z"
         id="path854" /><rect
         style="opacity:1;vector-effect:none;fill:#241f31;fill-opacity:1;stroke:none;stroke-width:30.4252;stroke-linecap:butt;stroke-linejoin:miter;stroke-miterlimit:4;stroke-dasharray:none;stroke-dashoffset:0;stroke-opacity:1;marker:none;marker-start:none;marker-mid:none;marker-end:none;paint-order:normal"
         id="rect856"
         width="185"
         height="71"
         x="3035"
         y="-6003.4805"
         rx="7.528163"
         ry="7.4467773" /><path
         style="color:#000000;fill:#3d3846;stroke-width:1.86417;-inkscape-stroke:none"
         d="m 3242.5,-6003.9863 c -19.7907,0 -36.0059,16.2151 -36.0059,36.0058 0,19.7908 16.2152,36.0059 36.0059,36.0059 19.7907,0 36.0059,-16.2151 36.0059,-36.0059 0,-19.7907 -16.2152,-36.0058 -36.0059,-36.0058 z m 0,16 c 11.1437,0 20.0059,8.8621 20.0059,20.0058 0,11.1437 -8.8622,20.0059 -20.0059,20.0059 -11.1437,0 -20.0059,-8.8622 -20.0059,-20.0059 0,-11.1437 8.8622,-20.0058 20.0059,-20.0058 z"
         id="path858"
         transform="matrix(1.0292779,0,0,0.999998,-88.857933,-0.01209939)" /><path
         style="opacity:1;vector-effect:none;fill:#3d3846;fill-opacity:1;stroke:none;stroke-width:30.4252;stroke-linecap:butt;stroke-linejoin:miter;stroke-miterlimit:4;stroke-dasharray:none;stroke-dashoffset:0;stroke-opacity:1;marker:none;marker-start:none;marker-mid:none;marker-end:none;paint-order:normal"
         d="m 3140.4727,874 c 4.1706,0 7.5273,3.32175 7.5273,7.44727 v 56.10546 c 0,4.12552 -3.3567,7.44727 -7.5273,7.44727 h 72 c 4.1706,0 7.5273,-3.32175 7.5273,-7.44727 V 881.44727 C 3220,877.32175 3216.6433,874 3212.4727,874 Z"
         transform="translate(0,-6877.4803)"
         id="path860" /><path
         style="fill:#cdab8f;fill-opacity:1;stroke:none;stroke-width:1.89127px;stroke-linecap:butt;stroke-linejoin:miter;stroke-opacity:1"
         d="m 3162.0659,-6103.6675 c -5.6313,3.9243 -10.0659,14.1872 -14.0659,24.1872 -4,10 3,12 10,7 7,-5 25.9341,-13.2929 27,-23 1.0355,-9.4302 -11.4567,-16.1855 -22.9341,-8.1872 z"
         id="path862" /></g></g></svg>
