<?xml version="1.0" encoding="UTF-8"?>
<svg width="256" height="256" version="1.1"
     xmlns="http://www.w3.org/2000/svg"
     xmlns:xlink="http://www.w3.org/1999/xlink">
  <defs>
    <linearGradient id="Gradient" x1="0" x2="0" y1="0" y2="1">
      <stop offset="0%" style="stop-color:#26A269;stop-opacity:1" />
      <stop offset="100%" style="stop-color:#26A269;stop-opacity:1" />
    </linearGradient>
    <filter id="alpha-to-white">
      <feColorMatrix in="SourceGraphic" type="matrix"
                     values="0 0 0 1 0
                             0 0 0 1 0
                             0 0 0 1 0
                             0 0 0 1 0"/>
    </filter>
    <g id="child-svg">
<svg height="16px" viewBox="0 0 16 16" width="16px" xmlns="http://www.w3.org/2000/svg">
    <path d="m 2.074219 0 c -1.152344 0 -2.074219 0.984375 -2.074219 2.117188 v 11.765624 c 0 1.132813 0.921875 2.117188 2.074219 2.117188 h 11.851562 c 1.152344 0 2.074219 -0.984375 2.074219 -2.117188 v -11.765624 c 0 -1.132813 -0.921875 -2.117188 -2.074219 -2.117188 z m 0 2 h 11.851562 c 0.035157 0 0.074219 0.015625 0.074219 0.117188 v 11.765624 c 0 0.101563 -0.039062 0.117188 -0.074219 0.117188 h -11.851562 c -0.035157 0 -0.074219 -0.015625 -0.074219 -0.117188 v -11.765624 c 0 -0.101563 0.039062 -0.117188 0.074219 -0.117188 z m 0 0"/>
    <path d="m 4.933594 12 h 2.984375 c 1.9375 0 3.148437 -0.957031 3.148437 -2.46875 c 0 -1.382812 -1.015625 -2.257812 -2.664062 -2.257812 h -2.535156 v 1.164062 h 2.269531 c 0.855469 0 1.394531 0.507812 1.394531 1.292969 c 0 0.738281 -0.449219 1.070312 -1.414062 1.070312 h -1.71875 v -5.589843 h 1.070312 c 0.933594 0 1.453125 0.378906 1.453125 1.070312 c 0 0.566406 -0.367187 0.957031 -1.222656 1.246094 l 1.464843 0.160156 c 0.761719 -0.253906 1.257813 -0.96875 1.257813 -1.785156 c 0 -1.222656 -1.003906 -1.902344 -2.835937 -1.902344 h -2.652344 z m 0 0"/>
</svg>
</g>
  </defs>
  <rect
      width="256"
      height="256"
      fill="url(#Gradient)"
      ry="0"
      x="0"
      y="0" />
  <use xlink:href="#child-svg" filter="url(#alpha-to-white)"
       transform="matrix(8,0,0,8,64,64)" />
</svg>
