<?xml version="1.0" encoding="UTF-8"?>
<svg height="128px" viewBox="0 0 128 128" width="128px" xmlns="http://www.w3.org/2000/svg" xmlns:xlink="http://www.w3.org/1999/xlink">
    <linearGradient id="a" gradientTransform="matrix(0.232143 0 0 0.328947 -8.56691 263.826965)" gradientUnits="userSpaceOnUse" x1="88.595886" x2="536.595886" y1="-449.394012" y2="-449.394012">
        <stop offset="0" stop-color="#c0bfbc"/>
        <stop offset="0.0384615" stop-color="#f6f5f4"/>
        <stop offset="0.0768555" stop-color="#c0bfbc"/>
        <stop offset="0.923077" stop-color="#c0bfbc"/>
        <stop offset="0.961538" stop-color="#f6f5f4"/>
        <stop offset="1" stop-color="#c0bfbc"/>
    </linearGradient>
    <linearGradient id="b" gradientUnits="userSpaceOnUse">
        <stop offset="0" stop-opacity="0.34902"/>
        <stop offset="0.125" stop-opacity="0.14902"/>
        <stop offset="0.25" stop-opacity="0.34902"/>
        <stop offset="0.75" stop-opacity="0.34902"/>
        <stop offset="0.875" stop-opacity="0.14902"/>
        <stop offset="1" stop-opacity="0.34902"/>
    </linearGradient>
    <linearGradient id="c" x1="51.999998" x2="75.999998" xlink:href="#b" y1="65.999996" y2="65.999996"/>
    <linearGradient id="d" x1="80" x2="104" xlink:href="#b" y1="65.999996" y2="65.999996"/>
    <linearGradient id="e" x1="24" x2="48" xlink:href="#b" y1="66" y2="66"/>
    <linearGradient id="f" x1="51.999998" x2="75.999998" xlink:href="#b" y1="38" y2="38"/>
    <linearGradient id="g" x1="80" x2="104" xlink:href="#b" y1="38" y2="38"/>
    <linearGradient id="h" x1="24" x2="48" xlink:href="#b" y1="38" y2="38"/>
    <linearGradient id="i" x1="51.999998" x2="75.999998" xlink:href="#b" y1="94" y2="94"/>
    <linearGradient id="j" x1="80" x2="104" xlink:href="#b" y1="94" y2="94"/>
    <linearGradient id="k" x1="24" x2="48" xlink:href="#b" y1="94" y2="94"/>
    <path d="m 20 16 h 88 c 4.417969 0 8 3.582031 8 8 v 84 c 0 4.417969 -3.582031 8 -8 8 h -88 c -4.417969 0 -8 -3.582031 -8 -8 v -84 c 0 -4.417969 3.582031 -8 8 -8 z m 0 0" fill="url(#a)"/>
    <path d="m 20 12 h 88 c 4.417969 0 8 3.582031 8 8 v 80 c 0 4.417969 -3.582031 8 -8 8 h -88 c -4.417969 0 -8 -3.582031 -8 -8 v -80 c 0 -4.417969 3.582031 -8 8 -8 z m 0 0" fill="#f6f5f4"/>
    <path d="m 58 48 h 12 c 3.3125 0 6 2.6875 6 6 v 12 c 0 3.3125 -2.6875 6 -6 6 h -12 c -3.3125 0 -6 -2.6875 -6 -6 v -12 c 0 -3.3125 2.6875 -6 6 -6 z m 0 0" fill="#9a9996"/>
    <path d="m 58 76 h 12 c 3.3125 0 6 2.6875 6 6 v 12 c 0 3.3125 -2.6875 6 -6 6 h -12 c -3.3125 0 -6 -2.6875 -6 -6 v -12 c 0 -3.3125 2.6875 -6 6 -6 z m 0 0" fill="#57e389"/>
    <path d="m 30 76 h 12 c 3.3125 0 6 2.6875 6 6 v 12 c 0 3.3125 -2.6875 6 -6 6 h -12 c -3.3125 0 -6 -2.6875 -6 -6 v -12 c 0 -3.3125 2.6875 -6 6 -6 z m 0 0" fill="#57e389"/>
    <path d="m 86 48 h 12 c 3.3125 0 6 2.6875 6 6 v 12 c 0 3.3125 -2.6875 6 -6 6 h -12 c -3.3125 0 -6 -2.6875 -6 -6 v -12 c 0 -3.3125 2.6875 -6 6 -6 z m 0 0" fill="#f5c211"/>
    <path d="m 30 20 h 12 c 3.3125 0 6 2.6875 6 6 v 12 c 0 3.3125 -2.6875 6 -6 6 h -12 c -3.3125 0 -6 -2.6875 -6 -6 v -12 c 0 -3.3125 2.6875 -6 6 -6 z m 0 0" fill="#9a9996"/>
    <path d="m 52 62 v 4 c 0 3.324219 2.675781 6 6 6 h 12 c 3.324219 0 6 -2.675781 6 -6 v -4 c 0 3.324219 -2.675781 6 -6 6 h -12 c -3.324219 0 -6 -2.675781 -6 -6 z m 0 0" fill="url(#c)"/>
    <path d="m 80 62 v 4 c 0 3.324219 2.675781 6 6 6 h 12 c 3.324219 0 6 -2.675781 6 -6 v -4 c 0 3.324219 -2.675781 6 -6 6 h -12 c -3.324219 0 -6 -2.675781 -6 -6 z m 0 0" fill="url(#d)"/>
    <path d="m 58 20 h 12 c 3.3125 0 6 2.6875 6 6 v 12 c 0 3.3125 -2.6875 6 -6 6 h -12 c -3.3125 0 -6 -2.6875 -6 -6 v -12 c 0 -3.3125 2.6875 -6 6 -6 z m 0 0" fill="#f5c211"/>
    <path d="m 86 20 h 12 c 3.3125 0 6 2.6875 6 6 v 12 c 0 3.3125 -2.6875 6 -6 6 h -12 c -3.3125 0 -6 -2.6875 -6 -6 v -12 c 0 -3.3125 2.6875 -6 6 -6 z m 0 0" fill="#9a9996"/>
    <path d="m 30 48 h 12 c 3.3125 0 6 2.6875 6 6 v 12 c 0 3.3125 -2.6875 6 -6 6 h -12 c -3.3125 0 -6 -2.6875 -6 -6 v -12 c 0 -3.3125 2.6875 -6 6 -6 z m 0 0" fill="#57e389"/>
    <path d="m 24 62 v 4 c 0 3.324219 2.675781 6 6 6 h 12 c 3.324219 0 6 -2.675781 6 -6 v -4 c 0 3.324219 -2.675781 6 -6 6 h -12 c -3.324219 0 -6 -2.675781 -6 -6 z m 0 0" fill="url(#e)"/>
    <path d="m 86 76 h 12 c 3.3125 0 6 2.6875 6 6 v 12 c 0 3.3125 -2.6875 6 -6 6 h -12 c -3.3125 0 -6 -2.6875 -6 -6 v -12 c 0 -3.3125 2.6875 -6 6 -6 z m 0 0" fill="#57e389"/>
    <g fill="#ffffff">
        <path d="m 31.683594 35 h 2.640625 v -3.667969 h 3.148437 v 3.667969 h 2.640625 v -9.457031 h -2.640625 v 3.554687 h -3.148437 v -3.554687 h -2.640625 z m 0 0"/>
        <path d="m 60.410156 35 h 6.90625 v -2.183594 h -4.265625 v -1.5625 h 3.65625 v -1.992187 h -3.65625 v -1.535157 h 4.289063 v -2.183593 h -6.929688 z m 0 0"/>
        <path d="m 87.144531 25.542969 l 3.480469 6.488281 v 2.96875 h 2.550781 v -2.96875 l 3.464844 -6.488281 h -2.855469 l -1.851562 3.84375 h -0.078125 l -1.839844 -3.84375 z m 0 0"/>
        <path d="m 32.796875 63 h 6.386719 v -2.234375 h -3.824219 v -7.222656 h -2.5625 z m 0 0"/>
        <path d="m 63.898438 63.152344 c 2.574218 0 4.597656 -1.71875 4.597656 -4.875 c 0 -3.160156 -2.023438 -4.886719 -4.597656 -4.886719 c -2.582032 0 -4.59375 1.726563 -4.59375 4.886719 c 0 3.136718 2.011718 4.875 4.59375 4.875 z m 0 -2.285156 c -1.234376 0 -1.929688 -0.957032 -1.929688 -2.589844 c 0 -1.636719 0.695312 -2.601563 1.929688 -2.601563 c 1.246093 0 1.929687 0.964844 1.929687 2.601563 c 0 1.632812 -0.683594 2.589844 -1.929687 2.589844 z m 0 0"/>
        <path d="m 88.796875 63 h 6.386719 v -2.234375 h -3.824219 v -7.222656 h -2.5625 z m 0 0"/>
    </g>
    <path d="m 52 34 v 4 c 0 3.324219 2.675781 6 6 6 h 12 c 3.324219 0 6 -2.675781 6 -6 v -4 c 0 3.324219 -2.675781 6 -6 6 h -12 c -3.324219 0 -6 -2.675781 -6 -6 z m 0 0" fill="url(#f)"/>
    <path d="m 80 34 v 4 c 0 3.324219 2.675781 6 6 6 h 12 c 3.324219 0 6 -2.675781 6 -6 v -4 c 0 3.324219 -2.675781 6 -6 6 h -12 c -3.324219 0 -6 -2.675781 -6 -6 z m 0 0" fill="url(#g)"/>
    <path d="m 24 34 v 4 c 0 3.324219 2.675781 6 6 6 h 12 c 3.324219 0 6 -2.675781 6 -6 v -4 c 0 3.324219 -2.675781 6 -6 6 h -12 c -3.324219 0 -6 -2.675781 -6 -6 z m 0 0" fill="url(#h)"/>
    <path d="m 52 90 v 4 c 0 3.324219 2.675781 6 6 6 h 12 c 3.324219 0 6 -2.675781 6 -6 v -4 c 0 3.324219 -2.675781 6 -6 6 h -12 c -3.324219 0 -6 -2.675781 -6 -6 z m 0 0" fill="url(#i)"/>
    <path d="m 80 90 v 4 c 0 3.324219 2.675781 6 6 6 h 12 c 3.324219 0 6 -2.675781 6 -6 v -4 c 0 3.324219 -2.675781 6 -6 6 h -12 c -3.324219 0 -6 -2.675781 -6 -6 z m 0 0" fill="url(#j)"/>
    <path d="m 24 90 v 4 c 0 3.324219 2.675781 6 6 6 h 12 c 3.324219 0 6 -2.675781 6 -6 v -4 c 0 3.324219 -2.675781 6 -6 6 h -12 c -3.324219 0 -6 -2.675781 -6 -6 z m 0 0" fill="url(#k)"/>
    <path d="m 31.800781 91 h 2.460938 l 1.625 -5.363281 h 0.027343 l 1.625 5.363281 h 2.460938 l 2.792969 -9.457031 h -2.867188 l -1.320312 5.902343 h -0.027344 l -1.546875 -5.902343 h -2.261719 l -1.546875 5.902343 h -0.027344 l -1.320312 -5.902343 h -2.867188 z m 0 0" fill="#ffffff"/>
    <path d="m 63.898438 91.152344 c 2.625 0 4.179687 -1.847656 4.179687 -4.875 c 0 -3.035156 -1.554687 -4.886719 -4.179687 -4.886719 c -2.621094 0 -4.175782 1.859375 -4.175782 4.886719 c 0 3.023437 1.554688 4.875 4.175782 4.875 z m 0 -2.03125 c -1.046876 0 -1.6875 -1.078125 -1.6875 -2.84375 c 0 -1.769532 0.640624 -2.855469 1.6875 -2.855469 c 1.050781 0 1.691406 1.085937 1.691406 2.855469 c 0 1.765625 -0.640625 2.84375 -1.691406 2.84375 z m 0 0" fill="#ffffff"/>
    <path d="m 87.800781 91 h 2.460938 l 1.625 -5.363281 h 0.027343 l 1.625 5.363281 h 2.460938 l 2.792969 -9.457031 h -2.867188 l -1.320312 5.902343 h -0.027344 l -1.546875 -5.902343 h -2.261719 l -1.546875 5.902343 h -0.027344 l -1.320312 -5.902343 h -2.867188 z m 0 0" fill="#ffffff"/>
</svg>
