<?xml version="1.0" encoding="UTF-8" standalone="no"?>
<!-- Created with Inkscape (http://www.inkscape.org/) -->

<svg
   width="1200"
   height="675"
   viewBox="0 0 317.49999 178.59375"
   version="1.1"
   id="svg5"
   xml:space="preserve"
   inkscape:version="1.2.2 (b0a8486541, 2022-12-01)"
   sodipodi:docname="default-banner.svg"
   inkscape:export-filename="default-banner.png"
   inkscape:export-xdpi="96"
   inkscape:export-ydpi="96"
   xmlns:inkscape="http://www.inkscape.org/namespaces/inkscape"
   xmlns:sodipodi="http://sodipodi.sourceforge.net/DTD/sodipodi-0.dtd"
   xmlns="http://www.w3.org/2000/svg"
   xmlns:svg="http://www.w3.org/2000/svg"><defs
     id="defs6" /><sodipodi:namedview
     id="namedview7"
     pagecolor="#ffffff"
     bordercolor="#000000"
     borderopacity="0.25"
     inkscape:showpageshadow="2"
     inkscape:pageopacity="0.0"
     inkscape:pagecheckerboard="0"
     inkscape:deskcolor="#d1d1d1"
     inkscape:document-units="px"
     showgrid="false"
     inkscape:zoom="0.5946522"
     inkscape:cx="574.28527"
     inkscape:cy="378.37243"
     inkscape:window-width="1680"
     inkscape:window-height="981"
     inkscape:window-x="0"
     inkscape:window-y="0"
     inkscape:window-maximized="1"
     inkscape:current-layer="layer1" /><g
     inkscape:label="Vrstva 1"
     inkscape:groupmode="layer"
     id="layer1"><path
       id="path296"
       style="color:#000000;fill:#808080;fill-opacity:0.25;stroke-width:0.0194611;marker:none"
       d="m 158.73191,-55.05562 a 18.043418,18.043418 0 0 0 -12.76563,5.291666 L 19.680455,76.539963 a 18.043418,18.043418 0 0 0 0,25.495597 l 126.303915,126.322 a 18.043418,18.043418 0 0 0 25.53126,0 L 297.81954,102.05365 a 18.043418,18.043418 0 0 0 0,-25.495601 l -126.322,-126.322003 a 18.043418,18.043418 0 0 0 -12.76563,-5.291666 z m -0.009,43.561681 56.27253,56.272533 a 98.156194,98.156194 0 0 0 -0.98754,-0.03101 c -2.97715,8.570615 -5.50346,19.595194 -8.48062,28.201895 -7.75866,0.84804 -15.15654,2.526166 -21.97695,5.629631 -6.85648,-5.809975 -14.20014,-13.947905 -20.85816,-19.721794 a 100.35749,100.35749 0 0 0 -12.41371,8.444446 c 3.19369,8.299965 8.17336,18.061565 11.27683,26.505875 -5.37693,5.575415 -9.58069,12.089173 -12.97285,19.180223 -8.91344,0 -19.88416,-1.51558 -28.74347,-1.69602 a 102.48661,102.48661 0 0 0 -3.95118,14.6513 c 7.84888,4.33042 18.15148,8.44401 25.94622,12.99094 -0.10826,1.67804 -0.57722,3.33828 -0.57722,5.05241 0,6.00844 0.88386,11.90883 2.25516,17.50229 -2.33502,1.85823 -4.97559,3.76744 -7.67757,5.68802 L 57.95047,89.27872 75.973139,71.256048 c 0.8606,0.277271 1.59488,0.643105 2.14974,1.134297 4.36651,3.861288 2.50804,18.602708 2.79673,29.879825 3.84325,1.58782 7.70459,3.0851 11.85458,3.95118 0.72173,0.14435 1.53394,-0.1263 2.25567,0 6.080621,-9.472778 12.323591,-23.239763 18.043341,-24.250194 5.80997,-1.028474 16.32925,10.140186 25.36899,16.906456 a 66.219344,66.219344 0 0 0 11.83649,-8.443924 c -3.51846,-10.735822 -10.71761,-24.701417 -7.88479,-29.897916 2.85086,-5.232587 18.38587,-6.67634 29.32017,-9.581327 0.50522,-3.301943 1.1188,-6.694177 1.1188,-10.140466 0,-1.353256 -0.48697,-2.634055 -0.55914,-3.969267 -10.59148,-3.915418 -25.8923,-6.947036 -28.18381,-12.396143 -2.30956,-5.449107 6.13462,-18.4221221 10.69961,-28.7429471 a 67.157602,67.157602 0 0 0 -1.60456,-1.6613972 z m -32.6838,32.683793 A 30.385116,30.385116 0 0 1 83.290309,63.938665 Z m 105.55687,40.189794 22.68492,22.68492 c -0.0836,0.05239 -0.16927,0.110156 -0.2527,0.162264 -6.22498,-4.204113 -13.46036,-6.911111 -20.85816,-9.022188 -0.65199,-4.292968 -1.11471,-9.060444 -1.57406,-13.824996 z m -18.1656,46.520152 c 7.78899,0 14.96474,2.48073 20.8225,6.68952 l -50.24034,50.23104 a 35.978575,35.978575 0 0 1 29.41784,-56.92056 z m -58.06364,78.38023 c 0.43082,0.59585 0.87349,1.17305 1.31672,1.74925 l -1.6738,-1.6738 c 0.11773,-0.024 0.23985,-0.0519 0.35708,-0.0754 z" /></g></svg>
