<?xml version="1.0" encoding="UTF-8"?>
<svg width="256" height="256" version="1.1"
     xmlns="http://www.w3.org/2000/svg"
     xmlns:xlink="http://www.w3.org/1999/xlink">
  <defs>
    <linearGradient id="Gradient" x1="0" x2="0" y1="0" y2="1">
      <stop offset="0%" style="stop-color:#1C71D8;stop-opacity:1" />
      <stop offset="100%" style="stop-color:#2EC27E;stop-opacity:1" />
    </linearGradient>
    <filter id="alpha-to-white">
      <feColorMatrix in="SourceGraphic" type="matrix"
                     values="0 0 0 0 1 0 0 0 0 1 0 0 0 0 1 0 0 0 1 0"/>
    </filter>
    <g id="child-svg"><svg xmlns="http://www.w3.org/2000/svg" role="img" viewBox="0 0 24 24" height="16px" width="16px"><title>Dart</title><path d="M4.105 4.105S9.158 1.58 11.684.316a3.079 3.079 0 0 1 1.481-.315c.766.047 1.677.788 1.677.788L24 9.948v9.789h-4.263V24H9.789l-9-9C.303 14.5 0 13.795 0 13.105c0-.319.18-.818.316-1.105l3.789-7.895zm.679.679v11.787c.002.543.021 1.024.498 1.508L10.204 23h8.533v-4.263L4.784 4.784zm12.055-.678c-.899-.896-1.809-1.78-2.74-2.643-.302-.267-.567-.468-1.07-.462-.37.014-.87.195-.87.195L6.341 4.105l10.498.001z" /></svg></g>
  </defs>
  <rect
      width="256"
      height="256"
      fill="url(#Gradient)"
      ry="0"
      x="0"
      y="0" />
  <use xlink:href="#child-svg" filter="url(#alpha-to-white)"
       transform="matrix(8,0,0,8,64,64)" />
</svg>
