<?xml version="1.0" encoding="UTF-8" standalone="no"?>
<!-- Created with Inkscape (http://www.inkscape.org/) -->

<svg
   width="1200"
   height="675"
   viewBox="0 0 317.49999 178.59375"
   version="1.1"
   id="svg5"
   xml:space="preserve"
   inkscape:version="1.2.2 (b0a8486541, 2022-12-01)"
   sodipodi:docname="gtk-dart-banner.svg"
   inkscape:export-filename="gtk-dart-banner.png"
   inkscape:export-xdpi="96"
   inkscape:export-ydpi="96"
   xmlns:inkscape="http://www.inkscape.org/namespaces/inkscape"
   xmlns:sodipodi="http://sodipodi.sourceforge.net/DTD/sodipodi-0.dtd"
   xmlns="http://www.w3.org/2000/svg"
   xmlns:svg="http://www.w3.org/2000/svg"><sodipodi:namedview
     id="namedview7"
     pagecolor="#ffffff"
     bordercolor="#000000"
     borderopacity="0.25"
     inkscape:showpageshadow="2"
     inkscape:pageopacity="0.0"
     inkscape:pagecheckerboard="0"
     inkscape:deskcolor="#d1d1d1"
     inkscape:document-units="px"
     showgrid="false"
     inkscape:zoom="0.4204826"
     inkscape:cx="873.99573"
     inkscape:cy="475.64393"
     inkscape:window-width="1680"
     inkscape:window-height="981"
     inkscape:window-x="0"
     inkscape:window-y="0"
     inkscape:window-maximized="1"
     inkscape:current-layer="g2687" /><defs
     id="defs2"><linearGradient
       id="Gradient"
       x1="56.000011"
       x2="200.00002"
       y1="5.2183043e-07"
       y2="256"
       gradientUnits="userSpaceOnUse"
       gradientTransform="matrix(1.2402344,0,0,0.69763184,-1.739502e-5,-3.6404552e-7)"><stop
         offset="0%"
         style="stop-color:#1C71D8;stop-opacity:1"
         id="stop686" /><stop
         offset="100%"
         style="stop-color:#2EC27E;stop-opacity:1"
         id="stop688" /></linearGradient></defs><g
     inkscape:label="Vrstva 1"
     inkscape:groupmode="layer"
     id="layer1"><rect
       width="317.5"
       height="178.59375"
       fill="url(#Gradient)"
       ry="0"
       x="0"
       y="0"
       id="rect703"
       style="fill:url(#Gradient);stroke-width:0.264583" /><g
       id="g2687"
       transform="translate(-128.06051,-121.33853)"><path
         d="m 133.71739,75.212905 c 0,0 6.96323,-3.479355 10.44417,-5.221102 a 4.2429785,4.2427457 0 0 1 2.04082,-0.434039 c 1.05558,0.06474 2.311,1.085831 2.311,1.085831 l 12.62005,12.620758 v 13.48887 h -5.87459 v 5.874247 H 141.55015 L 129.14781,90.225818 c -0.66975,-0.688983 -1.0873,-1.660445 -1.0873,-2.611236 0,-0.439559 0.24793,-1.127178 0.43542,-1.52265 z m 0.93567,0.935636 v 16.242038 c 0.002,0.748235 0.0312,1.411036 0.68625,2.077969 l 6.78271,6.780952 h 11.7588 v -5.874251 z m 16.61225,-0.934261 c -1.23886,-1.23465 -2.49286,-2.452771 -3.77584,-3.641955 -0.41615,-0.367896 -0.7813,-0.644886 -1.47447,-0.636616 -0.5099,0.01926 -1.19892,0.268684 -1.19892,0.268684 l -8.01739,4.008492 z"
         id="path1014"
         style="fill:#ffffff;fill-opacity:1;stroke:none;stroke-width:0.264583" /><text
         xml:space="preserve"
         style="font-weight:bold;font-size:26.4583px;font-family:Parisienne;-inkscape-font-specification:'Parisienne Bold';fill:#ffffff;fill-opacity:1;stroke:none;stroke-width:13.2292;stroke-linecap:round;stroke-linejoin:round"
         x="161.13342"
         y="92.824654"
         id="text2632"><tspan
           sodipodi:role="line"
           id="tspan2630"
           style="font-style:normal;font-variant:normal;font-weight:bold;font-stretch:normal;font-size:26.4583px;font-family:Cantarell;-inkscape-font-specification:'Cantarell Bold';stroke-width:13.2292"
           x="161.13342"
           y="92.824654"> gtk-dart</tspan></text></g><path
       id="path2689"
       style="fill:#ffffff;fill-opacity:1;stroke:none;stroke-width:0.264583"
       d="m 107.43892,72.611589 a 4.2429785,4.2427457 0 0 0 -2.0407,0.434082 c -3.48094,1.741745 -10.444326,5.221387 -10.444326,5.221387 L 89.732508,89.14598 c -0.18749,0.395472 -0.435633,1.082829 -0.435633,1.522388 0,0.95079 0.417523,1.922228 1.087272,2.61121 L 102.78649,105.6814 h 13.70872 v -5.874055 h 5.87458 V 86.318246 l -12.6199,-12.620935 c 0,0 -1.25539,-1.020982 -2.31097,-1.085722 z m -0.18759,1.378211 c 0.69317,-0.0083 1.0587,0.268758 1.47485,0.636653 1.28298,1.189183 2.53662,2.40699 3.77548,3.641638 l -14.4663,-0.001 8.01708,-4.008541 c 0,0 0.689,-0.249457 1.19889,-0.268717 z m 48.16502,2.336291 V 95.878386 H 158.75 v -6.581511 l 4.78885,6.581511 h 4.33927 l -5.30355,-7.055384 4.80074,-5.803263 h -3.91552 L 158.75,88.881397 V 76.326091 Z m 33.5225,0 v 7.432104 c -0.83068,-0.655234 -1.88649,-1.003039 -3.12177,-1.003039 -3.59832,0 -6.00635,2.725528 -6.00635,6.800101 0,3.968741 2.27583,6.587712 5.58312,6.587712 1.62243,0 2.96894,-0.637328 3.94291,-1.759066 l 0.71365,1.494483 h 2.16938 V 76.326091 Z m -93.049096,2.87631 19.227766,19.226733 v 5.874056 h -11.75897 l -6.782533,-6.78046 c -0.655049,-0.666933 -0.684263,-1.330192 -0.686263,-2.078426 z m 49.895666,0.08682 v 3.730521 h -1.77251 v 2.69906 h 1.77251 v 6.111772 c 0,2.619369 1.72,4.233333 4.57749,4.233333 0.89958,0 1.82552,-0.159061 2.67219,-0.450102 l -0.68781,-2.407605 c -0.37042,0.158749 -0.84698,0.238229 -1.24385,0.238229 -1.21708,0 -1.98438,-0.714585 -1.98438,-1.799374 v -5.926253 h 3.25458 v -2.69906 h -3.25458 v -3.730521 z m 75.64447,0 v 3.730521 h -1.77302 v 2.69906 h 1.77302 v 6.111772 c 0,2.619369 1.71949,4.233333 4.57698,4.233333 0.89958,0 1.82605,-0.159061 2.67271,-0.450102 l -0.68833,-2.407605 c -0.37042,0.158749 -0.84647,0.238229 -1.24334,0.238229 -1.21707,0 -1.98437,-0.714585 -1.98437,-1.799374 v -5.926253 h 3.25458 v -2.69906 h -3.25458 v -3.730521 z m -86.41281,3.465938 c -3.54541,0 -5.97948,2.69907 -5.97948,6.800101 0,3.9952 2.27542,6.587712 5.55625,6.587712 1.4085,0 2.61439,-0.489181 3.545,-1.365808 v 1.048515 c 0,2.222495 -1.21678,3.386873 -3.51864,3.386873 -1.08479,0 -2.40782,-0.291147 -3.54552,-0.767395 l -0.66146,2.539896 c 1.37583,0.66146 2.77812,0.97875 4.23333,0.97875 4.10103,0 6.79959,-2.513342 6.79959,-6.270416 V 83.019739 h -2.38125 l -0.42892,1.152385 c -0.8752,-0.924105 -2.1016,-1.416968 -3.6189,-1.416968 z m 65.72209,0 c -1.85208,0 -3.80991,0.476562 -5.31802,1.243852 l 0.79375,2.354378 c 1.34936,-0.529166 2.61948,-0.79375 3.8101,-0.79375 2.06375,0 3.175,0.79396 3.175,2.32854 v 0.374137 c -5.56228,0.07662 -8.04344,1.329713 -8.04344,4.071069 0,2.30187 1.74646,3.809587 4.44521,3.809587 1.64761,0 3.0349,-0.546689 4.02714,-1.551327 l 0.47078,1.286744 h 2.4076 v -7.725627 c 0,-3.466033 -1.9846,-5.397603 -5.76812,-5.397603 z m 16.27187,0.158646 c -1.5395,0 -2.96966,0.743613 -3.93257,2.031918 l -0.32712,-1.925981 h -2.67218 v 12.858647 h 3.36 v -8.32249 c 0.77024,-0.9355 1.86071,-1.467094 3.0427,-1.467094 0.55562,0 1.16449,0.105834 1.64073,0.264584 l 0.79375,-3.095418 c -0.55562,-0.211666 -1.2174,-0.344166 -1.90531,-0.344166 z m -81.5175,2.699061 c 1.11535,0 2.03937,0.469558 2.64531,1.32395 v 5.265828 c -0.58344,0.700594 -1.44613,1.109493 -2.48667,1.109493 -1.9579,0 -3.20135,-1.534588 -3.20135,-3.96875 0,-2.275412 1.13771,-3.730521 3.04271,-3.730521 z m 50.79948,0 c 1.10119,0 2.02344,0.457826 2.64583,1.252119 v 5.269963 c -0.59354,0.745287 -1.46527,1.177189 -2.51354,1.177189 -1.95792,0 -3.20135,-1.534588 -3.20135,-3.96875 0,-2.275412 1.13761,-3.730521 3.06906,-3.730521 z m -16.95969,2.090311 v 2.751253 h 7.80521 V 87.703174 Z M 203.2,90.141785 v 2.410705 c -0.62771,0.598969 -1.50506,0.944646 -2.48719,0.944646 -1.29646,0 -2.16937,-0.661358 -2.16937,-1.613855 0,-1.17922 1.35766,-1.691579 4.65656,-1.741496 z" /></g></svg>
