<?xml version="1.0" encoding="UTF-8"?>
<svg height="128px" viewBox="0 0 128 128" width="128px" xmlns="http://www.w3.org/2000/svg">
    <path d="m 106.074219 21.925781 c -23.308594 -23.3125 -60.839844 -23.3125 -84.148438 0 c -23.3125 23.308594 -23.3125 60.839844 0 84.148438 c 23.308594 23.3125 60.839844 23.3125 84.148438 0 c 23.3125 -23.308594 23.3125 -60.839844 0 -84.148438 z m -36.417969 36.417969 c 3.132812 3.132812 3.132812 8.179688 0 11.3125 s -8.179688 3.132812 -11.3125 0 s -3.132812 -8.179688 0 -11.3125 s 8.179688 -3.132812 11.3125 0 z m 0 0" fill="#333333"/>
    <path d="m 106.074219 21.925781 l -36.417969 36.417969 c 3.132812 3.132812 3.132812 8.179688 0 11.3125 l 36.417969 36.417969 c 23.3125 -23.308594 23.3125 -60.839844 0 -84.148438 z m -84.148438 0 c -23.3125 23.308594 -23.3125 60.839844 0 84.148438 l 36.417969 -36.417969 c -3.132812 -3.132812 -3.132812 -8.179688 0 -11.3125 z m 0 0" fill="#404040"/>
    <path d="m 83.085938 44.914062 c -10.574219 -10.570312 -27.597657 -10.570312 -38.171876 0 c -10.570312 10.574219 -10.570312 27.597657 0 38.171876 c 10.574219 10.570312 27.597657 10.570312 38.171876 0 c 10.570312 -10.574219 10.570312 -27.597657 0 -38.171876 z m -13.429688 13.429688 c 3.132812 3.132812 3.132812 8.179688 0 11.3125 s -8.179688 3.132812 -11.3125 0 s -3.132812 -8.179688 0 -11.3125 s 8.179688 -3.132812 11.3125 0 z m 0 0" fill="#333333"/>
    <path d="m 79.777344 48.222656 c -8.738282 -8.742187 -22.816406 -8.742187 -31.554688 0 c -8.742187 8.738282 -8.742187 22.816406 0 31.554688 c 8.738282 8.742187 22.816406 8.742187 31.554688 0 c 8.742187 -8.738282 8.742187 -22.816406 0 -31.554688 z m -10.828125 10.828125 c 2.742187 2.742188 2.742187 7.15625 0 9.898438 c -2.742188 2.742187 -7.15625 2.742187 -9.898438 0 c -2.742187 -2.742188 -2.742187 -7.15625 0 -9.898438 c 2.742188 -2.742187 7.15625 -2.742187 9.898438 0 z m 0 0" fill="#e5a50a"/>
    <g fill="#333333">
        <path d="m 98.804688 29.195312 c -19.269532 -19.273437 -50.339844 -19.273437 -69.609376 0 c -19.273437 19.269532 -19.273437 50.339844 0 69.609376 c 19.269532 19.273437 50.339844 19.273437 69.609376 0 c 19.273437 -19.269532 19.273437 -50.339844 0 -69.609376 z m -1.386719 1.386719 c 18.527343 18.523438 18.527343 48.3125 0 66.835938 c -18.523438 18.527343 -48.3125 18.527343 -66.835938 0 c -18.527343 -18.523438 -18.527343 -48.3125 0 -66.835938 c 18.523438 -18.527343 48.3125 -18.527343 66.835938 0 z m 0 0"/>
        <path d="m 91.15625 36.84375 c -15.035156 -15.03125 -39.277344 -15.03125 -54.3125 0 c -15.03125 15.035156 -15.03125 39.277344 0 54.3125 c 15.035156 15.03125 39.277344 15.03125 54.3125 0 c 15.03125 -15.035156 15.03125 -39.277344 0 -54.3125 z m -1.390625 1.390625 c 14.289063 14.285156 14.289063 37.246094 0 51.53125 c -14.285156 14.289063 -37.246094 14.289063 -51.53125 0 c -14.289063 -14.285156 -14.289063 -37.246094 0 -51.53125 c 14.285156 -14.289063 37.246094 -14.289063 51.53125 0 z m 0 0"/>
    </g>
</svg>
