<?xml version="1.0" encoding="UTF-8"?>
<svg width="256" height="256" version="1.1"
     xmlns="http://www.w3.org/2000/svg"
     xmlns:xlink="http://www.w3.org/1999/xlink">
  <defs>
    <linearGradient id="Gradient" x1="0" x2="0" y1="0" y2="1">
      <stop offset="0%" style="stop-color:#9141AC;stop-opacity:1" />
      <stop offset="100%" style="stop-color:#9141AC;stop-opacity:1" />
    </linearGradient>
    <filter id="alpha-to-white">
      <feColorMatrix in="SourceGraphic" type="matrix"
                     values="0 0 0 1 0
                             0 0 0 1 0
                             0 0 0 1 0
                             0 0 0 1 0"/>
    </filter>
    <g id="child-svg">
<!-- Created with Inkscape (http://www.inkscape.org/) -->

<svg
   width="16"
   height="16"
   viewBox="0 0 4.2333332 4.2333333"
   version="1.1"
   id="svg5"
   inkscape:version="1.2.2 (b0a8486541, 2022-12-01)"
   sodipodi:docname="projector.svg"
   xmlns:inkscape="http://www.inkscape.org/namespaces/inkscape"
   xmlns:sodipodi="http://sodipodi.sourceforge.net/DTD/sodipodi-0.dtd"
   xmlns="http://www.w3.org/2000/svg"
   xmlns:svg="http://www.w3.org/2000/svg">
  <sodipodi:namedview
     id="namedview7"
     pagecolor="#ffffff"
     bordercolor="#000000"
     borderopacity="0.25"
     inkscape:showpageshadow="2"
     inkscape:pageopacity="0.0"
     inkscape:pagecheckerboard="0"
     inkscape:deskcolor="#d1d1d1"
     inkscape:document-units="px"
     showgrid="true"
     inkscape:zoom="22.627417"
     inkscape:cx="10.584505"
     inkscape:cy="2.8726213"
     inkscape:window-width="1680"
     inkscape:window-height="981"
     inkscape:window-x="0"
     inkscape:window-y="0"
     inkscape:window-maximized="1"
     inkscape:current-layer="layer1">
    <inkscape:grid
       type="xygrid"
       id="grid1049"
       empspacing="2" />
  </sodipodi:namedview>
  <defs
     id="defs2" />
  <g
     inkscape:label="Vrstva 1"
     inkscape:groupmode="layer"
     id="layer1">
    <path
       id="path2130"
       style="fill:#000000;stroke-width:0.264583;paint-order:stroke fill markers"
       d="M 2.7781249 0.83767495 A 0.61736119 0.61736113 0 0 0 2.1605916 1.4552083 A 0.61736119 0.61736113 0 0 0 2.7781249 2.0727417 A 0.61736119 0.61736113 0 0 0 3.3956583 1.4552083 A 0.61736119 0.61736113 0 0 0 2.7781249 0.83767495 z M 0.51521402 1.0583333 C 0.22843852 1.0655504 0 1.2989234 0 1.5875 L 0 2.6458333 C 7.8332088e-17 2.9389903 0.2360096 3.1749999 0.52916666 3.1749999 L 3.7041666 3.1749999 C 3.9973236 3.1749999 4.2333332 2.9389903 4.2333332 2.6458333 L 4.2333332 1.5875 C 4.2333332 1.2943429 3.9973236 1.0583333 3.7041666 1.0583333 L 3.6147664 1.0583333 A 0.9260416 0.92604154 0 0 1 3.6276855 1.0862386 A 0.9260416 0.92604154 0 0 1 3.6395711 1.1156942 A 0.9260416 0.92604154 0 0 1 3.6509399 1.1451497 A 0.9260416 0.92604154 0 0 1 3.6607584 1.175122 A 0.9260416 0.92604154 0 0 1 3.6700601 1.2056111 A 0.9260416 0.92604154 0 0 1 3.6778116 1.2361002 A 0.9260416 0.92604154 0 0 1 3.6850463 1.2665893 A 0.9260416 0.92604154 0 0 1 3.6907307 1.298112 A 0.9260416 0.92604154 0 0 1 3.6953816 1.3291178 A 0.9260416 0.92604154 0 0 1 3.6995157 1.3606404 A 0.9260416 0.92604154 0 0 1 3.7020995 1.3921631 A 0.9260416 0.92604154 0 0 1 3.7036498 1.4236857 A 0.9260416 0.92604154 0 0 1 3.7036498 1.4242024 A 0.9260416 0.92604154 0 0 1 3.7036498 1.4247192 A 0.9260416 0.92604154 0 0 1 3.7036498 1.425236 A 0.9260416 0.92604154 0 0 1 3.7036498 1.4257527 A 0.9260416 0.92604154 0 0 1 3.7036498 1.4262695 A 0.9260416 0.92604154 0 0 1 3.7036498 1.4267863 A 0.9260416 0.92604154 0 0 1 3.7036498 1.427303 A 0.9260416 0.92604154 0 0 1 3.7036498 1.4278198 A 0.9260416 0.92604154 0 0 1 3.7036498 1.4283366 A 0.9260416 0.92604154 0 0 1 3.7036498 1.4288533 A 0.9260416 0.92604154 0 0 1 3.7036498 1.4293701 A 0.9260416 0.92604154 0 0 1 3.7036498 1.4298869 A 0.9260416 0.92604154 0 0 1 3.7036498 1.4304036 A 0.9260416 0.92604154 0 0 1 3.7036498 1.4309204 A 0.9260416 0.92604154 0 0 1 3.7036498 1.4314371 A 0.9260416 0.92604154 0 0 1 3.7036498 1.4319539 A 0.9260416 0.92604154 0 0 1 3.7036498 1.4324707 A 0.9260416 0.92604154 0 0 1 3.7041666 1.4329874 A 0.9260416 0.92604154 0 0 1 3.7041666 1.4335042 A 0.9260416 0.92604154 0 0 1 3.7041666 1.434021 A 0.9260416 0.92604154 0 0 1 3.7041666 1.4345377 A 0.9260416 0.92604154 0 0 1 3.7041666 1.4350545 A 0.9260416 0.92604154 0 0 1 3.7041666 1.4355713 A 0.9260416 0.92604154 0 0 1 3.7041666 1.436088 A 0.9260416 0.92604154 0 0 1 3.7041666 1.4366048 A 0.9260416 0.92604154 0 0 1 3.7041666 1.4371216 A 0.9260416 0.92604154 0 0 1 3.7041666 1.4376383 A 0.9260416 0.92604154 0 0 1 3.7041666 1.4381551 A 0.9260416 0.92604154 0 0 1 3.7041666 1.4386718 A 0.9260416 0.92604154 0 0 1 3.7041666 1.4391886 A 0.9260416 0.92604154 0 0 1 3.7041666 1.4397054 A 0.9260416 0.92604154 0 0 1 3.7041666 1.4402221 A 0.9260416 0.92604154 0 0 1 3.7041666 1.4407389 A 0.9260416 0.92604154 0 0 1 3.7041666 1.4412557 A 0.9260416 0.92604154 0 0 1 3.7041666 1.4417724 A 0.9260416 0.92604154 0 0 1 3.7041666 1.4422892 A 0.9260416 0.92604154 0 0 1 3.7041666 1.442806 A 0.9260416 0.92604154 0 0 1 3.7041666 1.4433227 A 0.9260416 0.92604154 0 0 1 3.7041666 1.4438395 A 0.9260416 0.92604154 0 0 1 3.7041666 1.4443563 A 0.9260416 0.92604154 0 0 1 3.7041666 1.444873 A 0.9260416 0.92604154 0 0 1 3.7041666 1.4453898 A 0.9260416 0.92604154 0 0 1 3.7041666 1.4459065 A 0.9260416 0.92604154 0 0 1 3.7041666 1.4464233 A 0.9260416 0.92604154 0 0 1 3.7041666 1.4469401 A 0.9260416 0.92604154 0 0 1 3.7041666 1.4474568 A 0.9260416 0.92604154 0 0 1 3.7041666 1.4479736 A 0.9260416 0.92604154 0 0 1 3.7041666 1.4484904 A 0.9260416 0.92604154 0 0 1 3.7041666 1.4490071 A 0.9260416 0.92604154 0 0 1 3.7041666 1.4495239 A 0.9260416 0.92604154 0 0 1 3.7041666 1.4500407 A 0.9260416 0.92604154 0 0 1 3.7041666 1.4505574 A 0.9260416 0.92604154 0 0 1 3.7041666 1.4510742 A 0.9260416 0.92604154 0 0 1 3.7041666 1.451591 A 0.9260416 0.92604154 0 0 1 3.7041666 1.4521077 A 0.9260416 0.92604154 0 0 1 3.7041666 1.4526245 A 0.9260416 0.92604154 0 0 1 3.7041666 1.4531412 A 0.9260416 0.92604154 0 0 1 3.7041666 1.453658 A 0.9260416 0.92604154 0 0 1 3.7041666 1.4541748 A 0.9260416 0.92604154 0 0 1 3.7041666 1.4546915 A 0.9260416 0.92604154 0 0 1 3.7041666 1.4552083 A 0.9260416 0.92604154 0 0 1 3.6995157 1.5461588 A 0.9260416 0.92604154 0 0 1 3.6865966 1.6360758 A 0.9260416 0.92604154 0 0 1 3.6643757 1.7239257 A 0.9260416 0.92604154 0 0 1 3.6338866 1.8097086 A 0.9260416 0.92604154 0 0 1 3.5946126 1.8918741 A 0.9260416 0.92604154 0 0 1 3.5481038 1.9699056 A 0.9260416 0.92604154 0 0 1 3.4938435 2.0427693 A 0.9260416 0.92604154 0 0 1 3.4328653 2.1099487 A 0.9260416 0.92604154 0 0 1 3.365686 2.1709269 A 0.9260416 0.92604154 0 0 1 3.2928222 2.2251871 A 0.9260416 0.92604154 0 0 1 3.2147908 2.2716959 A 0.9260416 0.92604154 0 0 1 3.1326253 2.31097 A 0.9260416 0.92604154 0 0 1 3.0468424 2.3414591 A 0.9260416 0.92604154 0 0 1 2.9589925 2.36368 A 0.9260416 0.92604154 0 0 1 2.8690755 2.3765991 A 0.9260416 0.92604154 0 0 1 2.7781249 2.38125 A 0.9260416 0.92604154 0 0 1 2.6871744 2.3765991 A 0.9260416 0.92604154 0 0 1 2.5972574 2.36368 A 0.9260416 0.92604154 0 0 1 2.5094075 2.3414591 A 0.9260416 0.92604154 0 0 1 2.4236246 2.31097 A 0.9260416 0.92604154 0 0 1 2.3414591 2.2716959 A 0.9260416 0.92604154 0 0 1 2.2634277 2.2251871 A 0.9260416 0.92604154 0 0 1 2.1905639 2.1709269 A 0.9260416 0.92604154 0 0 1 2.1233846 2.1099487 A 0.9260416 0.92604154 0 0 1 2.0624064 2.0427693 A 0.9260416 0.92604154 0 0 1 2.0081461 1.9699056 A 0.9260416 0.92604154 0 0 1 1.9616373 1.8918741 A 0.9260416 0.92604154 0 0 1 1.9223632 1.8097086 A 0.9260416 0.92604154 0 0 1 1.8918741 1.7239257 A 0.9260416 0.92604154 0 0 1 1.8696533 1.6360758 A 0.9260416 0.92604154 0 0 1 1.8567342 1.5461588 A 0.9260416 0.92604154 0 0 1 1.8520833 1.4552083 A 0.9260416 0.92604154 0 0 1 1.8567342 1.3642578 A 0.9260416 0.92604154 0 0 1 1.8696533 1.2743408 A 0.9260416 0.92604154 0 0 1 1.8918741 1.1864909 A 0.9260416 0.92604154 0 0 1 1.9223632 1.100708 A 0.9260416 0.92604154 0 0 1 1.9425171 1.0583333 L 0.52916666 1.0583333 C 0.52458607 1.0583333 0.51976602 1.0582188 0.51521402 1.0583333 z M 0.52916666 1.5875 L 1.3229166 1.5875 L 1.3229166 1.8520833 L 0.52916666 1.8520833 L 0.52916666 1.5875 z " />
  </g>
</svg>
</g>
  </defs>
  <rect
      width="256"
      height="256"
      fill="url(#Gradient)"
      ry="0"
      x="0"
      y="0" />
  <use xlink:href="#child-svg" filter="url(#alpha-to-white)"
       transform="matrix(8,0,0,8,64,64)" />
</svg>
