<?xml version="1.0" encoding="UTF-8" standalone="no"?>
<!-- Created with Inkscape (http://www.inkscape.org/) -->

<svg
   width="300"
   height="300"
   viewBox="0 0 79.374998 79.375002"
   version="1.1"
   id="svg5"
   inkscape:version="1.1 (c68e22c387, 2021-05-23)"
   sodipodi:docname="pervoj-icon.svg"
   inkscape:export-filename="/mnt/data/Mega/Graphics/Logos/pervoj-icon.png"
   inkscape:export-xdpi="96"
   inkscape:export-ydpi="96"
   xmlns:inkscape="http://www.inkscape.org/namespaces/inkscape"
   xmlns:sodipodi="http://sodipodi.sourceforge.net/DTD/sodipodi-0.dtd"
   xmlns="http://www.w3.org/2000/svg"
   xmlns:svg="http://www.w3.org/2000/svg">
  <sodipodi:namedview
     id="namedview7"
     pagecolor="#ffffff"
     bordercolor="#666666"
     borderopacity="1.0"
     inkscape:pageshadow="2"
     inkscape:pageopacity="0.0"
     inkscape:pagecheckerboard="0"
     inkscape:document-units="mm"
     showgrid="false"
     units="px"
     width="300px"
     inkscape:zoom="1.0863739"
     inkscape:cx="118.2834"
     inkscape:cy="154.64288"
     inkscape:window-width="1366"
     inkscape:window-height="699"
     inkscape:window-x="0"
     inkscape:window-y="32"
     inkscape:window-maximized="1"
     inkscape:current-layer="layer1" />
  <defs
     id="defs2" />
  <g
     inkscape:label="Vrstva 1"
     inkscape:groupmode="layer"
     id="layer1">
    <g
       id="g7145">
      <path
         id="path45"
         style="fill:#222831;stroke-width:0.279138"
         d="M 79.375,39.6875 A 39.6875,39.6875 0 0 1 39.6875,79.375 39.6875,39.6875 0 0 1 0,39.6875 39.6875,39.6875 0 0 1 39.6875,0 39.6875,39.6875 0 0 1 79.375,39.6875 Z" />
      <g
         aria-label="p"
         id="text4139"
         style="font-size:70.5556px;line-height:1.25;font-family:'Helmet Neue';-inkscape-font-specification:'Helmet Neue, Normal';fill:#00adb5;stroke-width:0.264583"
         transform="translate(-0.0052955,-1.325381)">
        <path
           d="m 55.815853,35.70743 c 0,-9.232862 -5.236548,-16.398665 -14.81392,-16.398665 -5.581059,0 -8.268235,1.515843 -11.024313,5.718862 l -0.275608,-5.029843 h -6.132274 v 42.719213 h 6.890196 V 47.145155 c 2.273764,3.445098 5.581058,4.960941 10.541999,4.960941 9.439568,0 14.81392,-6.890196 14.81392,-16.398666 z m -25.355919,0 c 0,-5.99447 3.169489,-10.955411 9.301764,-10.955411 5.925568,0 9.16396,4.892039 9.16396,10.955411 0,6.270078 -3.16949,10.955411 -9.16396,10.955411 -5.925569,0 -9.301764,-4.754235 -9.301764,-10.955411 z"
           id="path7120" />
      </g>
    </g>
  </g>
</svg>
