<?xml version="1.0" encoding="UTF-8" standalone="no"?>
<svg
   xmlns:dc="http://purl.org/dc/elements/1.1/"
   xmlns:cc="http://creativecommons.org/ns#"
   xmlns:rdf="http://www.w3.org/1999/02/22-rdf-syntax-ns#"
   xmlns:svg="http://www.w3.org/2000/svg"
   xmlns="http://www.w3.org/2000/svg"
   xmlns:sodipodi="http://sodipodi.sourceforge.net/DTD/sodipodi-0.dtd"
   xmlns:inkscape="http://www.inkscape.org/namespaces/inkscape"
   viewBox="0 0 160 160"
   version="1.1"
   id="svg_null"
   sodipodi:docname="logo.svg"
   inkscape:version="0.92.5 (2060ec1f9f, 2020-04-08)">
  <metadata
     id="metadata20">
    <rdf:RDF>
      <cc:Work
         rdf:about="">
        <dc:format>image/svg+xml</dc:format>
        <dc:type
           rdf:resource="http://purl.org/dc/dcmitype/StillImage" />
        <dc:title />
      </cc:Work>
    </rdf:RDF>
  </metadata>
  <defs
     id="defs18" />
  <sodipodi:namedview
     pagecolor="#ffffff"
     bordercolor="#666666"
     borderopacity="1"
     objecttolerance="10"
     gridtolerance="10"
     guidetolerance="10"
     inkscape:pageopacity="0"
     inkscape:pageshadow="2"
     inkscape:window-width="1640"
     inkscape:window-height="1025"
     id="namedview16"
     showgrid="false"
     inkscape:zoom="2.66875"
     inkscape:cx="115.23848"
     inkscape:cy="73.29812"
     inkscape:window-x="40"
     inkscape:window-y="0"
     inkscape:window-maximized="1"
     inkscape:current-layer="svg_null"
     inkscape:document-rotation="0" />
  <g
     id="root"
     stroke="none"
     stroke-width="1"
     fill="none"
     fill-rule="evenodd">
    <path
       d="M80 9.288l-63.37 51.488l-1.26 -1.552l64.63 -52.512l64.63 52.512l-1.26 1.552l-63.37 -51.488zm0 140.911l63.37 -51.487l1.26 1.552l-64.63 52.512l-64.63 -52.512l1.26 -1.552l63.37 51.487z"
       id="shape.primary"
       fill="#eeeeee"
       fill-rule="nonzero" />
    <path
       style="display:none;fill:#eeeeee"
       d="m 60,41 h 40 V 81 H 60 Z"
       id="icon.primary" />
    <svg
       viewBox="0 0 50 50"
       version="1.1"
       fill="#eeeeee"
       id="svg_icon.primary"
       x="60"
       y="41"
       width="40"
       height="40">
      <g
         id="surface1"
         fill="#eeeeee">
        <path
           style=" "
           d="M 2.84375 3 C 1.273438 3 0 4.273438 0 5.84375 L 0 10 L 50 10 L 50 5.84375 C 50 4.273438 48.726563 3 47.15625 3 Z M 0 12 L 0 46 C 0 46.554688 0.449219 47 1 47 L 49 47 C 49.554688 47 50 46.554688 50 46 L 50 12 Z M 15.09375 19.96875 C 15.351563 19.972656 15.589844 20.050781 15.78125 20.25 L 22.40625 27.0625 L 15.625 33.6875 C 15.429688 33.875 15.191406 33.96875 14.9375 33.96875 C 14.675781 33.96875 14.414063 33.855469 14.21875 33.65625 C 13.832031 33.261719 13.824219 32.636719 14.21875 32.25 L 19.59375 27.03125 L 14.375 21.65625 C 13.988281 21.261719 13.980469 20.636719 14.375 20.25 C 14.574219 20.054688 14.835938 19.964844 15.09375 19.96875 Z M 23 32 L 36 32 C 36.554688 32 37 32.445313 37 33 C 37 33.554688 36.554688 34 36 34 L 23 34 C 22.449219 34 22 33.554688 22 33 C 22 32.445313 22.449219 32 23 32 Z "
           fill="#eeeeee"
           id="path5" />
      </g>
    </svg>
    <g
       id="group"
       transform="translate(36.000000, 86.000000)">
      <path
         style=""
         d="M 0,1 H 88 V 20 H 0 Z"
         id="Rectangle-39" />
      <g
         aria-label="pervoj"
         style="font-style:normal;font-weight:500;font-size:18px;font-family:Saira;letter-spacing:0.81;fill:#eeeeee"
         id="headerText.primary">
        <path
           d="M 16.93929,18.582 V 5.82 h 1.764 l 0.054,1.224 h 0.126 q 0.288,-0.576 0.738,-0.864 0.45,-0.306 0.99,-0.396 0.558,-0.108 1.134,-0.108 0.918,0 1.53,0.234 0.63,0.216 1.008,0.756 0.378,0.522 0.558,1.44 0.18,0.918 0.18,2.286 0,1.386 -0.18,2.304 -0.162,0.918 -0.54,1.458 -0.36,0.522 -0.972,0.756 -0.612,0.234 -1.53,0.234 -0.648,0 -1.188,-0.108 -0.54,-0.108 -0.954,-0.36 -0.414,-0.27 -0.684,-0.756 h -0.126 v 4.662 z m 4.014,-5.148 q 0.72,0 1.134,-0.09 0.432,-0.108 0.648,-0.396 0.216,-0.306 0.288,-0.9 0.072,-0.612 0.072,-1.638 0,-1.026 -0.072,-1.62 -0.072,-0.612 -0.288,-0.918 -0.216,-0.306 -0.648,-0.396 -0.414,-0.108 -1.134,-0.108 -0.756,0 -1.188,0.216 -0.432,0.216 -0.648,0.648 -0.18,0.378 -0.234,0.936 -0.036,0.54 -0.036,1.242 0,0.72 0.036,1.26 0.054,0.522 0.216,0.882 0.216,0.468 0.648,0.684 0.45,0.198 1.206,0.198 z"
           style=""
           id="path18" />
        <path
           d="m 32.221289,15.144 q -1.17,0 -1.944,-0.144 -0.774,-0.162 -1.242,-0.504 -0.468,-0.36 -0.702,-0.9 -0.234,-0.558 -0.306,-1.332 -0.072,-0.792 -0.072,-1.836 0,-1.242 0.126,-2.142 0.126,-0.9 0.522,-1.476 0.396,-0.594 1.224,-0.864 0.846,-0.27 2.25,-0.27 1.098,0 1.8,0.18 0.702,0.162 1.098,0.522 0.414,0.36 0.594,0.936 0.198,0.558 0.252,1.35 0.054,0.774 0.054,1.764 v 0.612 h -5.994 q 0,0.81 0.072,1.314 0.072,0.486 0.324,0.756 0.27,0.252 0.828,0.36 0.576,0.09 1.548,0.09 0.414,0 0.9,-0.018 0.504,-0.018 1.026,-0.072 0.522,-0.054 0.936,-0.09 v 1.494 q -0.396,0.072 -0.954,0.126 -0.558,0.072 -1.17,0.108 -0.612,0.036 -1.17,0.036 z m 1.818,-5.13 V 9.672 q 0,-0.81 -0.108,-1.278 -0.09,-0.486 -0.324,-0.72 -0.216,-0.252 -0.612,-0.324 -0.378,-0.09 -0.954,-0.09 -0.72,0 -1.152,0.108 -0.414,0.09 -0.63,0.36 -0.216,0.27 -0.306,0.756 -0.072,0.468 -0.072,1.242 h 4.482 z"
           style=""
           id="path20" />
        <path
           d="M 39.169265,15 V 5.82 h 1.746 l 0.072,1.656 h 0.144 q 0.234,-0.72 0.648,-1.116 0.414,-0.396 1.008,-0.54 0.594,-0.144 1.35,-0.144 v 1.872 q -1.224,0 -1.89,0.36 -0.648,0.36 -0.918,1.152 -0.252,0.774 -0.252,2.034 V 15 Z"
           style=""
           id="path22" />
        <path
           d="m 48.979249,15 -3.186,-9.18 h 1.998 l 2.376,7.308 h 0.144 l 2.34,-7.308 h 1.962 l -3.15,9.18 z"
           style=""
           id="path24" />
        <path
           d="m 60.805219,15.144 q -1.152,0 -1.926,-0.144 -0.756,-0.144 -1.206,-0.45 -0.432,-0.324 -0.648,-0.864 -0.198,-0.54 -0.27,-1.35 -0.054,-0.81 -0.054,-1.944 0,-1.116 0.054,-1.926 0.072,-0.81 0.27,-1.35 0.216,-0.54 0.648,-0.846 0.45,-0.324 1.206,-0.45 0.774,-0.144 1.926,-0.144 1.17,0 1.926,0.144 0.774,0.126 1.206,0.45 0.45,0.306 0.648,0.846 0.216,0.54 0.27,1.35 0.072,0.81 0.072,1.926 0,1.134 -0.072,1.944 -0.054,0.81 -0.27,1.35 -0.198,0.54 -0.648,0.864 -0.432,0.306 -1.206,0.45 -0.756,0.144 -1.926,0.144 z m 0,-1.602 q 0.828,0 1.278,-0.108 0.45,-0.108 0.63,-0.432 0.198,-0.324 0.234,-0.954 0.054,-0.63 0.054,-1.656 0,-1.026 -0.054,-1.638 -0.036,-0.63 -0.234,-0.954 -0.18,-0.324 -0.63,-0.414 -0.45,-0.108 -1.278,-0.108 -0.81,0 -1.26,0.108 -0.45,0.09 -0.648,0.414 -0.18,0.324 -0.234,0.954 -0.036,0.612 -0.036,1.638 0,1.026 0.036,1.656 0.054,0.63 0.234,0.954 0.198,0.324 0.648,0.432 0.45,0.108 1.26,0.108 z"
           style=""
           id="path26" />
        <path
           d="m 68.185196,3.516 v -1.89 h 1.998 v 1.89 z m -1.62,15.084 v -1.476 q 0.774,0 1.116,-0.09 0.36,-0.09 0.45,-0.306 0.09,-0.216 0.09,-0.576 V 5.82 h 1.908 v 9.918 q 0,0.99 -0.162,1.566 -0.162,0.576 -0.576,0.846 -0.396,0.288 -1.098,0.36 -0.684,0.09 -1.728,0.09 z"
           style=""
           id="path28" />
      </g>
    </g>
  </g>
</svg>
