<?xml version="1.0" encoding="UTF-8" standalone="no"?>
<!-- Created with Inkscape (http://www.inkscape.org/) -->

<svg
   width="300"
   height="300"
   viewBox="0 0 79.374998 79.375002"
   version="1.1"
   id="svg5"
   inkscape:version="1.1 (c68e22c387, 2021-05-23)"
   sodipodi:docname="pervoj-transparent.svg"
   inkscape:export-filename="/mnt/data/Mega/Graphics/Logos/pervoj.png"
   inkscape:export-xdpi="96"
   inkscape:export-ydpi="96"
   xmlns:inkscape="http://www.inkscape.org/namespaces/inkscape"
   xmlns:sodipodi="http://sodipodi.sourceforge.net/DTD/sodipodi-0.dtd"
   xmlns="http://www.w3.org/2000/svg"
   xmlns:svg="http://www.w3.org/2000/svg">
  <sodipodi:namedview
     id="namedview7"
     pagecolor="#ffffff"
     bordercolor="#666666"
     borderopacity="1.0"
     inkscape:pageshadow="2"
     inkscape:pageopacity="0.0"
     inkscape:pagecheckerboard="0"
     inkscape:document-units="mm"
     showgrid="false"
     units="px"
     width="300px"
     inkscape:zoom="1.3040817"
     inkscape:cx="74.765254"
     inkscape:cy="150.29733"
     inkscape:window-width="1366"
     inkscape:window-height="699"
     inkscape:window-x="0"
     inkscape:window-y="32"
     inkscape:window-maximized="1"
     inkscape:current-layer="layer1" />
  <defs
     id="defs2" />
  <g
     inkscape:label="Vrstva 1"
     inkscape:groupmode="layer"
     id="layer1">
    <g
       aria-label="pervoj"
       id="text9996"
       style="font-size:24.6944px;line-height:1.25;font-family:'Helmet Neue';-inkscape-font-specification:'Helmet Neue, Normal';stroke-width:0.264583">
      <path
         d="m 18.272823,39.892484 c 0,-3.231494 -1.832787,-5.739519 -5.184859,-5.739519 -1.953366,0 -2.893875,0.530543 -3.8585005,2.001597 L 9.133001,34.394121 H 6.9867103 v 14.951688 h 2.4115626 v -5.450132 c 0.7958161,1.205782 1.9533661,1.736326 3.6896911,1.736326 3.30384,0 5.184859,-2.411563 5.184859,-5.739519 z m -8.8745501,0 c 0,-2.09806 1.1093191,-3.834385 3.2556091,-3.834385 2.073944,0 3.207379,1.71221 3.207379,3.834385 0,2.194522 -1.109319,3.834384 -3.207379,3.834384 -2.073943,0 -3.2556091,-1.663978 -3.2556091,-3.834384 z"
         style="font-weight:bold;fill:#00adb5"
         id="path826" />
      <path
         d="m 20.250305,39.892484 c 0,3.352072 2.122175,5.739519 5.811866,5.739519 2.459794,0 4.437275,-1.181666 5.305437,-3.400304 h -2.725065 c -0.602891,0.94051 -1.446938,1.422822 -2.580372,1.422822 -1.881019,0 -3.0868,-1.205781 -3.303841,-3.0868 h 8.802203 v -0.675237 c 0,-3.303841 -2.218637,-5.739519 -5.643056,-5.739519 -3.448535,0 -5.667172,2.363331 -5.667172,5.739519 z m 8.778088,-0.916394 h -6.245947 c 0.265272,-1.663978 1.326359,-2.845644 3.135031,-2.845644 1.760441,0 2.845644,1.15755 3.110916,2.845644 z"
         style="font-weight:bold;fill:#00adb5"
         id="path828" />
      <path
         d="m 36.528353,36.130446 -0.09646,-1.736325 h -2.146291 v 10.996725 h 2.411563 v -6.221831 c 0,-1.036972 0.337619,-1.736325 0.988741,-2.09806 0.675237,-0.361734 1.350475,-0.554659 2.025712,-0.554659 0.265272,0 0.530544,0.02412 0.7717,0.04823 l 0.651122,0.144694 v -2.435678 l -0.38585,-0.04823 h -0.409965 c -1.71221,0 -3.062685,0.723468 -3.810269,1.905134 z"
         style="font-weight:bold;fill:#00adb5"
         id="path830" />
      <path
         d="m 47.018651,45.390846 h 2.218637 l 4.943703,-10.996725 h -2.53214 l -3.496766,8.368122 -3.424419,-8.368122 h -2.652719 z"
         style="fill:#eeeeee"
         id="path832" />
      <path
         d="m 55.217962,39.892484 c 0,1.663978 0.530544,3.038568 1.567516,4.123772 1.036972,1.085203 2.483909,1.615747 4.292581,1.615747 h 0.02412 c 1.808672,0 3.231494,-0.530544 4.268465,-1.615747 1.036972,-1.085204 1.567516,-2.459794 1.567516,-4.123772 0,-1.663979 -0.530544,-3.038569 -1.567516,-4.123772 -1.036971,-1.085204 -2.483909,-1.615747 -4.292581,-1.615747 -1.808672,0 -3.255609,0.530543 -4.292581,1.615747 -1.036972,1.085203 -1.567516,2.459793 -1.567516,4.123772 z m 9.2604,0 c 0,2.098059 -1.205781,3.762037 -3.400303,3.762037 -2.098059,0 -3.400303,-1.591631 -3.400303,-3.762037 0,-2.146291 1.326359,-3.762038 3.400303,-3.762038 2.09806,0 3.400303,1.615747 3.400303,3.762038 z"
         style="fill:#eeeeee"
         id="path834" />
      <path
         d="m 69.180911,31.379668 c 0,0.868162 0.578776,1.5434 1.591632,1.5434 0.964625,0 1.615747,-0.602891 1.615747,-1.5434 0,-0.868163 -0.578775,-1.5434 -1.615747,-1.5434 -0.94051,0 -1.591632,0.627006 -1.591632,1.5434 z m -0.844046,16.181585 c -0.578775,0 -0.892279,-0.04823 -1.374591,-0.144694 v 1.92925 c 0.458197,0.120578 1.036972,0.192925 1.639862,0.192925 1.012857,0 1.832788,-0.289388 2.48391,-0.868163 0.627006,-0.578775 0.940509,-1.663978 0.964625,-3.279725 l -0.02412,-10.996725 h -2.387447 v 10.996725 c 0,1.302244 -0.192925,2.170407 -1.302243,2.170407 z"
         style="fill:#eeeeee"
         id="path836" />
    </g>
  </g>
</svg>
