<?xml version="1.0" encoding="UTF-8" standalone="no"?>
<svg
   viewBox="0 0 640 360"
   version="1.1"
   id="svg493"
   sodipodi:docname="tada.svg"
   width="640"
   height="360"
   inkscape:version="1.2 (dc2aedaf03, 2022-05-15)"
   xmlns:inkscape="http://www.inkscape.org/namespaces/inkscape"
   xmlns:sodipodi="http://sodipodi.sourceforge.net/DTD/sodipodi-0.dtd"
   xmlns="http://www.w3.org/2000/svg"
   xmlns:svg="http://www.w3.org/2000/svg">
  <defs
     id="defs497" />
  <sodipodi:namedview
     id="namedview495"
     pagecolor="#ffffff"
     bordercolor="#666666"
     borderopacity="1.0"
     inkscape:showpageshadow="2"
     inkscape:pageopacity="0.0"
     inkscape:pagecheckerboard="0"
     inkscape:deskcolor="#d1d1d1"
     showgrid="false"
     inkscape:zoom="0.81944445"
     inkscape:cx="165.35593"
     inkscape:cy="314.84746"
     inkscape:window-width="1680"
     inkscape:window-height="981"
     inkscape:window-x="0"
     inkscape:window-y="0"
     inkscape:window-maximized="1"
     inkscape:current-layer="svg493" />
  <rect
     style="fill:#99c1f1;stroke-width:10;paint-order:markers fill stroke"
     id="rect232"
     width="640"
     height="360"
     x="0"
     y="0" />
  <g
     id="g527"
     transform="translate(24.593223,-61.368059)">
    <path
       fill="#dd2e44"
       d="m 277.70018,211.3597 c -0.3111,0.31111 -0.5472,0.68609 -0.74442,1.09719 l -0.0222,-0.0222 -31.15456,70.1811 0.0306,0.0306 c -0.57776,1.11941 0.38888,3.39712 2.36937,5.38039 1.98049,1.98049 4.2582,2.94713 5.37761,2.36937 l 0.0278,0.0278 70.1811,-31.15734 -0.0222,-0.025 c 0.40832,-0.19444 0.78331,-0.43054 1.09719,-0.7472 4.33875,-4.33875 -2.69714,-18.40774 -15.71061,-31.42399 -13.01903,-13.01626 -27.08803,-20.04937 -31.42956,-15.71062 z"
       id="path463"
       style="stroke-width:0.999999" />
    <path
       fill="#ea596e"
       d="m 281.51673,223.89264 -34.95444,56.9593 -0.78331,1.76383 0.0306,0.0306 c -0.57776,1.11941 0.38888,3.39712 2.36937,5.38039 0.64442,0.64442 1.31385,1.13329 1.96938,1.54717 l 42.47921,-51.79279 z"
       id="path465"
       style="stroke-width:0.999999" />
    <path
       fill="#a0041e"
       d="m 309.32695,226.85366 c 12.97181,12.97736 20.17436,26.81025 16.08005,30.89901 -4.09154,4.09432 -17.92443,-3.10546 -30.90457,-16.07726 -12.97459,-12.97737 -20.17436,-26.81582 -16.08283,-30.90735 4.09432,-4.09154 17.92721,3.10823 30.90735,16.0856 z"
       id="path467"
       style="stroke-width:0.999999" />
    <path
       fill="#aa8dd8"
       d="m 297.04401,228.36194 c -0.55276,0.44721 -1.27496,0.68053 -2.03882,0.5972 -2.41104,-0.2611 -4.43875,-1.09996 -5.85815,-2.42492 -1.50273,-1.40273 -2.24437,-3.28601 -2.0416,-5.17206 0.35554,-3.311 3.67766,-6.34979 9.34137,-5.7387 2.20271,0.2361 3.18601,-0.47221 3.21934,-0.81109 0.0389,-0.3361 -0.76942,-1.23885 -2.97213,-1.47773 -2.41103,-0.2611 -4.43875,-1.09996 -5.86092,-2.42492 -1.50273,-1.40273 -2.24715,-3.28601 -2.0416,-5.17206 0.3611,-3.311 3.68043,-6.3498 9.33859,-5.73593 1.6055,0.17222 2.4527,-0.15833 2.81102,-0.37221 0.2861,-0.17499 0.39999,-0.34165 0.4111,-0.43887 0.0333,-0.3361 -0.76387,-1.23885 -2.97213,-1.47773 -1.52495,-0.16666 -2.63047,-1.53329 -2.46103,-3.06102 0.16388,-1.52495 1.52773,-2.62769 3.05823,-2.46103 5.65816,0.60831 8.25807,4.2832 7.89975,7.59698 -0.3611,3.31656 -3.68044,6.3498 -9.34415,5.74148 -1.6055,-0.17499 -2.44436,0.15833 -2.80546,0.37222 -0.2861,0.17221 -0.40277,0.34165 -0.41388,0.43609 -0.0361,0.33888 0.76664,1.23885 2.97491,1.47773 5.65815,0.61109 8.25807,4.2832 7.89975,7.59698 -0.35833,3.31101 -3.67766,6.3498 -9.3386,5.73593 -1.6055,-0.17222 -2.44992,0.16111 -2.81102,0.37221 -0.28888,0.17777 -0.39998,0.34444 -0.41109,0.43888 -0.0361,0.3361 0.76664,1.23885 2.97212,1.47773 1.52218,0.16666 2.63047,1.53606 2.46104,3.06101 -0.0778,0.76109 -0.46388,1.4194 -1.01664,1.86383 z"
       id="path469"
       style="stroke-width:0.999999" />
    <path
       fill="#77b255"
       d="m 330.5735,254.05001 c 5.48038,-1.54717 9.26081,0.8972 10.16079,4.10543 0.89997,3.20545 -1.04997,7.26365 -6.52757,8.80527 -2.13882,0.59998 -2.78047,1.62217 -2.69436,1.94716 0.0944,0.32777 1.18052,0.86664 3.31378,0.26388 5.4776,-1.54162 9.25804,0.90275 10.15801,4.1082 0.90553,3.20824 -1.04997,7.26088 -6.53035,8.80528 -2.13604,0.59998 -2.78046,1.62495 -2.68602,1.94994 0.0917,0.32499 1.17496,0.86386 3.311,0.26388 1.47218,-0.41388 3.01102,0.44443 3.42489,1.91938 0.4111,1.47773 -0.4472,3.01102 -1.92493,3.42767 -5.47483,1.54162 -9.25804,-0.89719 -10.16357,-4.1082 -0.89997,-3.20546 1.05274,-7.2581 6.5359,-8.8025 2.13882,-0.60276 2.78047,-1.62217 2.68603,-1.94994 -0.0889,-0.32499 -1.17219,-0.86664 -3.30545,-0.26666 -5.48316,1.5444 -9.26082,-0.89441 -10.16357,-4.1082 -0.90275,-3.20545 1.04997,-7.2581 6.53035,-8.80527 2.13327,-0.59721 2.77491,-1.62495 2.68603,-1.94716 -0.0944,-0.32777 -1.17497,-0.86664 -3.31101,-0.26666 -1.47773,0.41665 -3.00824,-0.44443 -3.42489,-1.91939 -0.41388,-1.47217 0.44721,-3.00546 1.92494,-3.42211 z"
       id="path471"
       style="stroke-width:0.999999" />
    <path
       fill="#aa8dd8"
       d="m 309.2964,246.55858 c -0.81664,0 -1.62217,-0.35832 -2.17215,-1.04163 -0.95831,-1.19996 -0.76109,-2.94713 0.43332,-3.90543 0.60553,-0.4861 15.04952,-11.83018 35.46275,-8.91083 1.5194,0.21666 2.57492,1.62217 2.35826,3.14157 -0.21666,1.51662 -1.61106,2.58325 -3.14434,2.35548 -18.03554,-2.56103 -31.07401,7.64975 -31.20179,7.75253 -0.51665,0.4111 -1.12774,0.60831 -1.73605,0.60831 z"
       id="path473"
       style="stroke-width:0.999999" />
    <path
       fill="#77b255"
       d="m 261.38959,235.0034 c -0.26388,0 -0.53332,-0.0389 -0.79997,-0.11667 -1.4694,-0.44165 -2.30271,-1.98882 -1.86106,-3.45822 3.14713,-10.48022 5.99981,-27.20469 2.49437,-31.56566 -0.39165,-0.49443 -0.9833,-0.98053 -2.33881,-0.87775 -2.60548,0.19999 -2.35826,5.69704 -2.35549,5.75259 0.11667,1.53051 -1.0333,2.8638 -2.56102,2.97769 -1.55273,0.0944 -2.8638,-1.0333 -2.97769,-2.56381 -0.2861,-3.83043 0.90553,-11.20798 7.47754,-11.70518 2.93324,-0.22222 5.36928,0.79719 7.08867,2.93601 6.5859,8.19697 -0.1,31.9601 -1.50551,36.64328 -0.3611,1.20274 -1.46662,1.97772 -2.66103,1.97772 z"
       id="path475"
       style="stroke-width:0.999999" />
    <circle
       fill="#5c913b"
       cx="316.23788"
       cy="216.94841"
       r="4.1665339"
       id="circle477"
       style="stroke-width:0.999999" />
    <circle
       fill="#9266cc"
       cx="250.96216"
       cy="240.55876"
       r="5.5553784"
       id="circle479"
       style="stroke-width:0.999999" />
    <circle
       fill="#5c913b"
       cx="335.68173"
       cy="244.7253"
       r="4.1665339"
       id="circle481"
       style="stroke-width:0.999999" />
    <circle
       fill="#5c913b"
       cx="310.68253"
       cy="278.05756"
       r="4.1665339"
       id="circle483"
       style="stroke-width:0.999999" />
    <circle
       fill="#ffcc4d"
       cx="323.18213"
       cy="201.67111"
       r="5.5553784"
       id="circle485"
       style="stroke-width:0.999999" />
    <circle
       fill="#ffcc4d"
       cx="335.68173"
       cy="214.17072"
       r="4.1665339"
       id="circle487"
       style="stroke-width:0.999999" />
    <circle
       fill="#ffcc4d"
       cx="327.34866"
       cy="225.28148"
       r="4.1665339"
       id="circle489"
       style="stroke-width:0.999999" />
    <circle
       fill="#ffcc4d"
       cx="266.23944"
       cy="255.83606"
       r="4.1665339"
       id="circle491"
       style="stroke-width:0.999999" />
  </g>
</svg>
