<?xml version="1.0" encoding="UTF-8" standalone="no"?>
<svg
   height="360"
   version="1.1"
   width="640"
   id="svg16"
   sodipodi:docname="globe.svg"
   inkscape:version="1.2 (dc2aedaf03, 2022-05-15)"
   xmlns:inkscape="http://www.inkscape.org/namespaces/inkscape"
   xmlns:sodipodi="http://sodipodi.sourceforge.net/DTD/sodipodi-0.dtd"
   xmlns="http://www.w3.org/2000/svg"
   xmlns:svg="http://www.w3.org/2000/svg">
  <defs
     id="defs20" />
  <sodipodi:namedview
     id="namedview18"
     pagecolor="#ffffff"
     bordercolor="#666666"
     borderopacity="1.0"
     inkscape:showpageshadow="2"
     inkscape:pageopacity="0.0"
     inkscape:pagecheckerboard="0"
     inkscape:deskcolor="#d1d1d1"
     showgrid="false"
     inkscape:zoom="0.86915209"
     inkscape:cx="396.36331"
     inkscape:cy="238.16315"
     inkscape:window-width="1680"
     inkscape:window-height="981"
     inkscape:window-x="0"
     inkscape:window-y="0"
     inkscape:window-maximized="1"
     inkscape:current-layer="svg16" />
  <rect
     style="opacity:1;fill:#241f31;stroke-width:10;paint-order:markers fill stroke"
     id="rect232"
     width="640"
     height="360"
     x="0"
     y="0" />
  <g
     transform="matrix(4.5428936,0,0,4.5428936,265.45726,-4546.4265)"
     id="g14"
     style="stroke-width:0.220124">
    <g
       transform="matrix(0.91636,-0.39854,0.39843,0.91662,-413.51,91.527)"
       id="g6"
       style="stroke-width:0.220124">
      <path
         d="M 22,12 A 10,10 0 1 1 2,12 10,10 0 1 1 22,12 Z"
         fill="#3498db"
         transform="matrix(1.1,0,0,1.1,-1.2,1027.2)"
         id="path2"
         style="stroke-width:0.096909" />
      <path
         d="M 12,1 C 10.861,1 9.7521,1.1786 8.7188,1.5 8.8071,1.6391 8.8317,1.6467 8.9375,1.8125 9.4712,2.649 9.5448,2.7321 9.6875,2.75 9.773,2.7607 10.002,2.777 10.219,2.7812 h 0.406 l 0.281,-0.6874 0.282,-0.6876 1,-0.3124 C 12.288,1.0628 12.31,1.0609 12.406,1.0312 12.27,1.0263 12.137,1 12,1 Z m 2.25,0.25 c -0.024,0.0238 0.14,0.3046 0.375,0.6562 0.294,0.4402 0.418,0.6444 0.469,0.625 0.104,-0.04 0.625,-0.4286 1,-0.7187 C 15.512,1.5787 14.907,1.3822 14.281,1.25 14.279,1.2514 14.251,1.2488 14.25,1.25 Z M 6.0938,2.7188 C 5.1484,3.3214 4.2819,4.0521 3.5625,4.9062 2.3201,6.3813 1.4859,8.2015 1.1562,10.188 c 0.1551,-0.013 0.2941,-0.032 0.625,-0.032 0.9456,-0.001 0.8559,-0.041 1.1876,0.438 0.185,0.267 0.1908,0.266 0.4687,0.281 0.3311,0.017 0.3277,0.006 0.1563,-0.531 C 3.527,10.135 3.4691,9.9287 3.4688,9.875 3.4683,9.8104 3.6559,9.6311 4.0312,9.3125 4.6577,8.7807 4.6043,8.8708 4.5,8.3438 4.4784,8.235 4.5271,8.1424 4.7188,7.9375 4.9466,7.6941 4.9472,7.7032 5.1875,7.7188 h 0.25 L 5.4688,7.3125 C 5.4822,7.0799 5.486,6.8889 5.5,6.875 5.514,6.8611 6.1378,6.4812 6.875,6.0625 7.6122,5.6437 8.2438,5.2871 8.2812,5.25 8.3395,5.1921 8.1999,4.9928 7.375,4 6.8441,3.361 6.4048,2.8138 6.375,2.7812 6.3694,2.7751 6.1545,2.7336 6.0938,2.7188 Z m 11.687,0.5937 c -0.038,-0.0321 -0.133,0.0373 -0.312,0.2187 l -0.25,0.2813 0.187,0.2187 c 0.109,0.1294 0.261,0.2962 0.344,0.375 0.183,0.1738 0.19,0.2175 0.031,0.5313 -0.069,0.136 -0.108,0.275 -0.093,0.3125 0.019,0.0521 0.135,0.063 0.5,0.0625 0.262,-4e-4 0.5,-0.0115 0.531,-0.0313 0.03,-0.0196 0.075,-0.1684 0.093,-0.3437 l 0.032,-0.3437 -0.375,-0.2813 c -0.329,-0.2574 -0.379,-0.325 -0.5,-0.625 -0.074,-0.1839 -0.157,-0.3494 -0.188,-0.375 z m -1,0.875 c -0.065,-0.0024 -0.437,0.6414 -0.437,0.75 0,0.0376 0.112,0.1693 0.25,0.2813 0.138,0.1122 0.26,0.1874 0.281,0.1874 0.042,0 0.371,-0.3469 0.437,-0.4687 0.03,-0.055 -0.035,-0.1717 -0.218,-0.4063 -0.139,-0.1784 -0.28,-0.3426 -0.313,-0.3437 z m 3.219,0.2813 c 0.013,0.0434 0.062,0.106 0.062,0.125 0,0.0458 -0.226,0.251 -0.468,0.4687 -0.392,0.3524 -0.44,0.4078 -0.656,0.4375 -0.201,0.0276 -0.318,0.0655 -0.626,0.3125 -0.205,0.1652 -0.395,0.3428 -0.406,0.375 -0.01,0.0322 0.079,0.1627 0.188,0.2813 0.228,0.247 0.246,0.3241 0.094,0.5937 L 18.0618,7.25 17.6878,7.2188 c -0.214,-0.0076 -0.498,-0.0161 -0.626,-0.0313 -0.291,-0.0345 -0.282,-0.0265 -0.031,0.6563 0.372,1.0098 0.405,1.0937 0.469,1.0937 0.035,0 0.431,-0.3698 0.906,-0.8125 0.476,-0.4428 0.909,-0.8125 0.938,-0.8125 0.028,0 0.101,0.0313 0.187,0.0625 0.15,0.0543 0.175,0.0367 0.438,-0.1875 l 0.281,-0.2187 0.281,0.1874 c 0.643,0.4412 0.722,0.5346 0.781,0.8126 0.092,0.4294 0.149,0.625 0.188,0.625 0.038,0 0.4,-0.4994 0.5,-0.6876 0.048,-0.0916 -0.011,-0.1464 -0.375,-0.6562 -0.227,-0.3184 -0.406,-0.626 -0.406,-0.6562 0,-0.0304 0.05,-0.0888 0.093,-0.125 0.058,-0.0482 0.162,0.0429 0.376,0.2812 -0.456,-0.8377 -1.04,-1.5929 -1.688,-2.2812 z m 1,3.5937 c -0.064,9e-4 -0.283,0.3217 -0.25,0.375 0.017,0.0276 0.099,0.0705 0.156,0.0937 0.058,0.0234 0.139,0.0608 0.188,0.0626 0.075,0.0026 0.091,-0.0221 0.062,-0.1563 -0.049,-0.2274 -0.112,-0.3757 -0.156,-0.375 z m -0.844,0.375 -0.812,0.0625 -0.813,0.0938 -1.5,1.2812 -1.469,1.25 0.032,1.25 c 0.019,0.686 0.045,1.282 0.062,1.313 0.018,0.03 0.232,0.264 0.5,0.5 0.269,0.235 0.55,0.461 0.625,0.531 0.136,0.125 0.175,0.137 1.344,0.187 l 1.156,0.063 0.531,0.312 c 0.282,0.183 0.518,0.363 0.532,0.375 0.013,0.013 -0.068,0.086 -0.188,0.188 l -0.218,0.187 0.343,0.407 c 0.19,0.224 0.438,0.541 0.563,0.687 l 0.218,0.25 v 0.531 0.344 c 1.226,-1.774 1.938,-3.931 1.938,-6.25 0,-0.917 -0.133,-1.805 -0.344,-2.6562 -0.069,-0.0473 -0.165,-0.1252 -0.187,-0.125 -0.036,2e-4 -0.188,0.1162 -0.344,0.25 -0.156,0.1338 -0.312,0.25 -0.344,0.25 -0.031,-2e-4 -0.303,-0.0858 -0.625,-0.1876 l -0.594,-0.1874 v -0.25 c 0,-0.2316 -0.004,-0.286 -0.187,-0.4688 z M 4.2808,10.531 c -0.0233,0.015 -0.0312,0.1 -0.0312,0.219 0,0.208 -0.0046,0.227 0.2188,0.344 0.2748,0.143 0.3213,0.167 0.2812,0.062 -0.0614,-0.16 -0.4279,-0.65 -0.4688,-0.625 z m -1.1562,0.75 c -0.0612,0.038 -0.1704,0.549 -0.125,0.594 0.0221,0.022 0.3178,0.093 0.625,0.156 0.3527,0.072 0.5568,0.091 0.5938,0.063 0.0837,-0.065 0.1747,-0.39 0.125,-0.438 -0.0627,-0.06 -1.1729,-0.403 -1.2188,-0.375 z m -1.2812,0.375 -0.3438,0.188 c -0.1977,0.109 -0.4098,0.218 -0.4688,0.218 -0.0041,0 -0.0259,0.002 -0.0312,0 0.0027,0.479 0.0632,0.945 0.125,1.407 l 0.2188,0.125 0.3437,-0.032 H 2.0308 L 2.2496,14 c 0.1207,0.247 0.2361,0.476 0.2812,0.5 0.0452,0.024 0.3416,0.031 0.625,0.031 h 0.5 v 0.407 c 0,0.412 -0.0013,0.425 -0.2187,0.75 -0.1247,0.185 -0.2211,0.399 -0.2187,0.468 0.0023,0.068 0.2629,0.731 0.5624,1.469 l 0.5313,1.313 0.5313,0.281 c 0.394,0.191 0.5312,0.274 0.5312,0.343 0,0.024 -0.128,0.702 -0.1875,1.063 1.0383,0.822 2.207,1.469 3.5,1.875 1.1484,-1.23 2.2425,-2.423 2.4065,-2.594 l 0.25,-0.25 0.062,-0.656 c 0.048,-0.37 0.093,-0.71 0.094,-0.75 0.001,-0.04 0.17,-0.236 0.344,-0.438 0.174,-0.201 0.312,-0.389 0.312,-0.406 0,-0.017 -0.497,-0.358 -1.094,-0.75 L 9.9684,15.938 H 9.5934 C 9.3361,15.938 9.2025,15.922 9.1558,15.875 9.1172,15.836 9.0639,15.613 9.0308,15.344 8.9988,15.083 8.9515,14.836 8.9371,14.812 8.9227,14.789 8.6748,14.782 8.3746,14.781 8.0744,14.781 7.7859,14.773 7.7496,14.75 7.7091,14.724 7.6848,14.516 7.6558,14.25 7.6299,14.012 7.5884,13.808 7.5621,13.781 7.5358,13.754 7.1887,13.734 6.7808,13.719 6.1045,13.694 5.986,13.67 5.6246,13.531 L 5.2184,13.375 4.6871,13.625 4.1246,13.844 H 3.5308 c -0.6786,0 -0.6249,0.074 -0.7187,-0.532 C 2.7797,13.104 2.7441,12.922 2.7184,12.906 2.6926,12.89 2.544,12.861 2.4058,12.844 l -0.25,-0.032 0.0313,-0.187 C 2.1885,12.518 2.1973,12.304 2.2184,12.156 L 2.2496,11.875 2.0621,11.75 Z m 3.125,0.282 C 4.9437,11.962 4.921,12.063 4.9058,12.156 l -0.0312,0.156 0.9688,0.376 c 0.9857,0.354 1.1579,0.373 1.3124,0.218 0.0589,-0.059 0.0484,-0.064 -0.0937,-0.125 -0.091,-0.038 -0.5741,-0.279 -1.0937,-0.5 -0.5734,-0.243 -0.9729,-0.371 -1,-0.343 z"
         fill="#2ecc71"
         transform="translate(0,1028.4)"
         id="path4"
         style="stroke-width:0.096909" />
    </g>
    <g
       transform="translate(-91.994,16)"
       id="g12"
       style="stroke-width:0.220124">
      <path
         d="m 103.91,-15 c -1.43,0.014 -2.89,0.301 -4.285,0.906 -5.571,2.423 -8.141,8.8977 -5.719,14.469 C 95.696,4.4922 99.72,6.9695 103.94,7 102.07,3.7657 101,0.0043 101,-4 c 0,-4.0043 1.07,-7.766 2.94,-11 z"
         fill="#2980b9"
         transform="translate(0,1028.4)"
         id="path8"
         style="stroke-width:0.096909" />
      <path
         d="m 103.69,-14.969 c -0.63,0.018 -1.25,0.059 -1.88,0.188 0,0.002 -0.03,0.029 -0.03,0.031 -0.01,0.031 0.27,0.209 0.63,0.438 0.44,0.286 0.61,0.412 0.65,0.374 0.08,-0.078 0.4,-0.615 0.63,-1.031 z m -3.69,0.75 c -0.127,0.05 -0.249,0.07 -0.375,0.125 -1.045,0.454 -1.993,1.044 -2.813,1.75 0.137,0.093 0.15,0.109 0.313,0.219 0.823,0.554 0.925,0.603 1.063,0.563 0.082,-0.025 0.299,-0.105 0.5,-0.188 l 0.374,-0.156 v -0.75 l -0.031,-0.75 0.813,-0.688 c 0.08,-0.068 0.079,-0.059 0.156,-0.125 z m -4.812,4 c -0.008,-0.003 -0.22,0.052 -0.282,0.063 -0.626,0.9294 -1.149,1.9294 -1.468,2.9998 -0.552,1.848 -0.584,3.8596 -0.094,5.8124 0.137,-0.0728 0.259,-0.149 0.562,-0.2812 0.867,-0.3779 0.755,-0.3695 1.25,-0.0625 0.276,0.1713 0.302,0.1601 0.563,0.0625 0.31,-0.1159 0.277,-0.1385 -0.094,-0.5625 -0.144,-0.165 -0.26,-0.3259 -0.281,-0.375 -0.026,-0.0591 0.064,-0.2769 0.281,-0.7187 0.362,-0.7376 0.368,-0.6521 0.063,-1.0938 -0.064,-0.0911 -0.063,-0.2044 0.031,-0.4688 0.112,-0.314 0.117,-0.2934 0.343,-0.375 l 0.219,-0.0937 -0.125,-0.375 C 96.076,-5.9062 95.993,-6.1067 96,-6.125 c 0.007,-0.0183 0.428,-0.6034 0.938,-1.2812 0.509,-0.678 0.949,-1.2636 0.968,-1.3126 0.031,-0.0764 -0.191,-0.1997 -1.344,-0.7812 -0.741,-0.3743 -1.334,-0.701 -1.374,-0.719 z m 1.156,7.9378 c -0.016,0.0224 0.015,0.1099 0.062,0.2187 0.083,0.1906 0.093,0.2011 0.344,0.2187 0.309,0.0216 0.36,0.0174 0.281,-0.0624 -0.12,-0.1222 -0.66,-0.4144 -0.687,-0.375 z m 2.25,0.9374 c -0.623,0.0056 -1.049,0.0581 -1.063,0.0938 -0.012,0.0324 0.008,0.127 0.031,0.2188 l 0.032,0.1562 1.031,-0.0625 c 1.045,-0.0682 1.232,-0.1091 1.313,-0.3125 0.03,-0.0774 -0.002,-0.0639 -0.157,-0.0625 -0.099,8e-4 -0.623,-0.0363 -1.187,-0.0313 z m -1.75,0.0626 c -0.082,-0.0304 -1.22,0.1119 -1.25,0.1562 -0.041,0.0591 0.065,0.57015 0.125,0.59375 0.029,0.0114 0.318,-0.02875 0.625,-0.09375 0.352,-0.0744 0.54,-0.1467 0.562,-0.1875 0.051,-0.0926 0.002,-0.4449 -0.062,-0.4687 z m 3.816,0.68745 c -0.04,-0.0141 -0.37,0.1012 -0.754,0.25 -0.63,0.2466 -0.738,0.26425 -1.125,0.28125 l -0.437,0.03125 -0.406,0.4375 -0.407,0.40625 -0.562,0.25 c -0.622,0.2711 -0.548,0.2989 -0.875,-0.21875 -0.113,-0.1785 -0.22,-0.3081 -0.25,-0.3125 -0.03,-0.0042 -0.148,0.023 -0.282,0.0625 l -0.25,0.0625 -0.062,-0.1875 C 95.209,0.36995 95.133,0.17525 95.094,0.03125 L 95.031,-0.25 94.781,-0.28125 h -0.219 l -0.25,0.3125 c -0.137,0.179 -0.289,0.38275 -0.343,0.40625 -0.004,0.0017 -0.026,-0.001 -0.031,0 0.193,0.4373 0.446,0.8512 0.687,1.25 h 0.25 l 0.313,-0.1563 0.312,-0.125 0.375,0.3126 c 0.209,0.1784 0.386,0.3395 0.437,0.3437 0.052,0.004 0.334,-0.1057 0.594,-0.2187 L 97.375,1.625 97.531,2 c 0.165,0.3781 0.164,0.3974 0.094,0.7812 -0.04,0.2202 -0.03,0.4686 0,0.5313 0.029,0.0609 0.525,0.5677 1.094,1.125 l 1,0.9687 0.591,0.0626 c 0.44,0.018 0.6,0.0298 0.63,0.0937 0.01,0.0213 0.16,0.7073 0.25,1.0625 0.89,0.2361 1.82,0.3636 2.75,0.375 -1.21,-2.0871 -2.1,-4.3961 -2.56,-6.8438 -0.05,0.01375 -0.15,0.06442 -0.16,0.06255 -0.05,-0.0074 -0.15,-0.2049 -0.28,-0.4375 -0.12,-0.208 -0.25,-0.3608 -0.28,-0.375 z"
         fill="#27ae60"
         transform="translate(0,1028.4)"
         id="path10"
         style="stroke-width:0.096909" />
    </g>
  </g>
</svg>
