<?xml version="1.0" encoding="UTF-8" standalone="no"?>
<!-- Created with Inkscape (http://www.inkscape.org/) -->

<svg
   width="96"
   height="53.999996"
   viewBox="0 0 25.399999 14.2875"
   version="1.1"
   id="svg5"
   inkscape:version="1.2 (dc2aedaf03, 2022-05-15)"
   sodipodi:docname="nuclear.svg"
   xmlns:inkscape="http://www.inkscape.org/namespaces/inkscape"
   xmlns:sodipodi="http://sodipodi.sourceforge.net/DTD/sodipodi-0.dtd"
   xmlns="http://www.w3.org/2000/svg"
   xmlns:svg="http://www.w3.org/2000/svg">
  <sodipodi:namedview
     id="namedview7"
     pagecolor="#ffffff"
     bordercolor="#666666"
     borderopacity="1.0"
     inkscape:pageshadow="2"
     inkscape:pageopacity="0.0"
     inkscape:pagecheckerboard="0"
     inkscape:document-units="px"
     showgrid="true"
     units="px"
     inkscape:object-paths="true"
     inkscape:snap-intersection-paths="true"
     inkscape:snap-smooth-nodes="true"
     inkscape:snap-nodes="true"
     inkscape:zoom="5.6568543"
     inkscape:cx="47.199378"
     inkscape:cy="29.168155"
     inkscape:window-width="1680"
     inkscape:window-height="981"
     inkscape:window-x="0"
     inkscape:window-y="0"
     inkscape:window-maximized="1"
     inkscape:current-layer="layer1"
     inkscape:showpageshadow="2"
     inkscape:deskcolor="#d1d1d1">
    <inkscape:grid
       type="xygrid"
       id="grid151"
       empspacing="4"
       originx="10.583333"
       originy="5.0270833" />
  </sodipodi:namedview>
  <defs
     id="defs2" />
  <g
     inkscape:label="Vrstva 1"
     inkscape:groupmode="layer"
     id="layer1"
     transform="translate(10.583333,5.0270829)">
    <rect
       style="fill:#f6d32d;stroke:none;stroke-width:2.64583;paint-order:markers fill stroke"
       id="rect229"
       width="25.4"
       height="14.287499"
       x="-10.583333"
       y="-5.0270829" />
    <g
       id="g1430">
      <rect
         style="fill:none;stroke-width:0.264583"
         id="rect3174"
         width="4.2333331"
         height="4.2333331"
         x="0"
         y="0" />
      <circle
         style="fill:none;stroke-width:0.264583"
         id="path3045"
         cx="0.77475369"
         cy="2.8914204"
         r="2.1166666"
         transform="rotate(-30)" />
      <path
         id="path1092"
         style="fill:#241f31;fill-opacity:1;stroke-width:0.0154483"
         d="M 3.5761719,1.3378906 A 8.0000001,8.0000001 0 0 0 0.03125,7.5 H 4.0351562 A 3.9999999,3.9999999 0 0 1 5.5839844,4.8164062 Z m 8.8417971,0.013672 -2,3.4628906 a 3.9999999,3.9999999 0 0 1 1.550781,2.6875 L 15.966797,7.5 A 8.0000001,8.0000001 0 0 0 14.927734,4 8.0000001,8.0000001 0 0 0 12.417969,1.3515626 Z M 8,6 A 2.0000001,2.0000001 0 0 0 6,8 2.0000001,2.0000001 0 0 0 8,10 2.0000001,2.0000001 0 0 0 10,8 2.0000001,2.0000001 0 0 0 8,6 Z m -1.5488281,5.683594 -2.0019531,3.466797 a 8.0000001,8.0000001 0 0 0 7.1093752,0.01172 L 9.5488281,11.683594 A 3.9999999,3.9999999 0 0 1 8,12 3.9999999,3.9999999 0 0 1 6.4511719,11.683594 Z"
         transform="scale(0.26458333)" />
    </g>
  </g>
</svg>
